<svg id="Capa_1" data-name="Capa 1" xmlns="http://www.w3.org/2000/svg" xmlns:xlink="http://www.w3.org/1999/xlink" viewBox="0 0 887.64 671.69"><defs><style>.cls-1,.cls-10,.cls-11,.cls-12,.cls-13,.cls-14,.cls-15,.cls-16,.cls-17,.cls-18,.cls-19,.cls-2,.cls-20,.cls-21,.cls-22,.cls-23,.cls-24,.cls-25,.cls-26,.cls-3,.cls-4,.cls-5,.cls-6,.cls-7,.cls-8,.cls-9{fill-rule:evenodd;}.cls-1{fill:url(#Linear_Gradient_140627015683968);}.cls-2{fill:url(#Linear_Gradient_140627015683968-2);}.cls-3{fill:url(#Linear_Gradient_140627015683968-3);}.cls-4{fill:#3fa053;}.cls-5{fill:#453474;}.cls-6{fill:#7975a9;}.cls-7{fill:#e5297f;}.cls-8{fill:#ee7813;}.cls-9{fill:#f6c23b;}.cls-10{fill:#92c03e;}.cls-11{fill:#f7e1be;}.cls-12{fill:#f4dfb1;}.cls-13{fill:#ef8e16;}.cls-14{fill:url(#Linear_Gradient_140627015793480);}.cls-15{fill:#f5f9fa;}.cls-16{fill:#d0237c;}.cls-17{fill:#f3a029;}.cls-18{fill:#7e3e8e;}.cls-19{fill:#bbdeec;}.cls-20{fill:#3c2d65;}.cls-21{fill:#f0a392;}.cls-22{fill:#352146;}.cls-23{fill:#e97864;}.cls-24{fill:#eb8a7f;}.cls-25{fill:#ef9b8e;}.cls-26{fill:#ea745a;}</style><linearGradient id="Linear_Gradient_140627015683968" x1="2100.88" y1="-190974.88" x2="2212.47" y2="-203286.21" gradientUnits="userSpaceOnUse"><stop offset="0" stop-color="#addbe9"/><stop offset="0.01" stop-color="#f8f7e4"/><stop offset="1" stop-color="#f8f7e4"/></linearGradient><linearGradient id="Linear_Gradient_140627015683968-2" x1="5373.02" y1="-565419.14" x2="6563.62" y2="-696777.63" xlink:href="#Linear_Gradient_140627015683968"/><linearGradient id="Linear_Gradient_140627015683968-3" x1="8023.65" y1="-810688.96" x2="9308.75" y2="-952474.47" xlink:href="#Linear_Gradient_140627015683968"/><linearGradient id="Linear_Gradient_140627015793480" x1="869.84" y1="-12863.07" x2="870.14" y2="-12896.72" gradientUnits="userSpaceOnUse"><stop offset="0" stop-color="#d9a251"/><stop offset="0.01" stop-color="#f1a049"/><stop offset="1" stop-color="#f1a049"/></linearGradient></defs><path class="cls-1" d="M500,491.27H231.62a38.43,38.43,0,1,1,0-76.86H500a38.43,38.43,0,1,1,0,76.86"/><path class="cls-2" d="M243.62,416.49H151.49c-19.41,0-35.15-16.24-35.15-36.28v-8.29c0-24-18.86-43.47-42.13-43.47h0C50.36,328.45,31,308.5,31,283.88h0c0-24.61,19.33-44.57,43.18-44.57h7.08c23.27,0,42.13-19.46,42.13-43.47,0-20,15.73-36.28,35.14-36.28h274.7a38.44,38.44,0,0,1,28,12.18,73.76,73.76,0,0,0-48.45,34.51l-1.16,1.9c-27.43,45.15-42.46,77.09-90.73,96.87-57.86,23.71-79.44,67.87-77.3,111.47"/><path class="cls-3" d="M720.5,470.66h-213A328.27,328.27,0,0,0,525,436.94c54.94-122.31,19.76-211.63,8.16-234.14h180.5c18.74,0,33.92,16.93,33.92,37.82,0,25,18.21,45.33,40.65,45.33h6.83c23,0,41.66,20.8,41.66,46.46s-18.64,46.46-41.66,46.46c-22.45,0-40.65,20.3-40.65,45.33v8.64c0,20.89-15.18,37.82-33.91,37.82m7.88-215.29-45,31.5,17,44.63,1.63,4.24,45.53-31.85,5.87-4.11,13.44-9.4-38.51-35"/><path class="cls-4" d="M90.07,224.08c-7.4-7.79-19.76-7.56-19.86-7.59A23.06,23.06,0,0,0,56.36,221a17.58,17.58,0,0,0-3.19,3.08L56,226c.37-1.13,2.73-3.89,5.7-5.4a18.79,18.79,0,0,1,8.82-2.15c5.72-.09,12.91,2.22,17.11,6.59a8.67,8.67,0,0,0,2.45-.93"/><path class="cls-5" d="M18.06,316.52c14.59,6.49,31.81-.37,38.47-15.33a29.66,29.66,0,0,0-4.34-31.37c8.73-22.9,8.52-43.67-1-47.93-4.47-2-9.17.12-12.35,2-5.86,3.5-10.35,8.55-14.25,13.64a161.46,161.46,0,0,0-12.94,20C7.93,264.18,4.33,271.05,2,278.29A35.94,35.94,0,0,0,.65,296.68a25.81,25.81,0,0,0,8.8,14.58,37.34,37.34,0,0,0,8.61,5.26"/><path class="cls-6" d="M51.85,236.46s-10.51,32.22-10.51,35.75,8.91,6.61,6.75,19.43S38,309.29,29.74,307.28s-10.87-12.95-4.4-13.63,12.74,1.08,14.63-6.07-3.1-15.45-3.1-15.45l15-35.67"/><path class="cls-4" d="M52.24,239l-.42-2.65a.71.71,0,0,0-.87-.5l-2.42.78a.69.69,0,0,1-.87-.58l.06-2.35a.67.67,0,0,0-.93-.55l-3.58,1.66-.14.07-.9-4.37a.71.71,0,0,0-.88-.47l-3.16,1.11a.7.7,0,0,1-.89-.52L36.87,227a.65.65,0,0,0-.5-.53l-2.1-.56c-.4-.1-.64-.51-.44-.79,6.3-8.81,16.68-6.77,17.34-6.63l.07,0A20.94,20.94,0,0,1,55,220c10.18,5.52,7,17.38,5.36,21.68-.17.47-1,.33-1.14-.19l-.16-.6a.69.69,0,0,0-1-.35.67.67,0,0,1-1-.27l-.59-1.43a.71.71,0,0,0-.88-.37l-2.35,1a.7.7,0,0,1-.91-.48"/><path class="cls-7" d="M187.74,190.06,123.5,137.21a41.59,41.59,0,0,0,64.24,52.85"/><path class="cls-8" d="M156.57,196.05l-4.4-26.57-16.36,19.89a32.07,32.07,0,0,0,20.76,6.68"/><path class="cls-8" d="M156.89,169.87l4.26,25.71a32.43,32.43,0,0,0,16.78-8.4l-21-17.31"/><path class="cls-8" d="M149.1,166c-9.31.16-17.48.39-25.7,1.12a32,32,0,0,0,9,19.2L149.1,166"/><path class="cls-8" d="M123.23,162.48c7.56-.67,15-.92,23.39-1.08l-18.4-15.13a32.61,32.61,0,0,0-5,16.21"/><path class="cls-9" d="M162.68,181.35a1.92,1.92,0,0,0,1.11-2.48c-.32-1.09-2.41-3.66-3.32-3.31s-.4,3.24-.07,4.33a1.93,1.93,0,0,0,2.28,1.46"/><path class="cls-9" d="M172.28,187.84a1.92,1.92,0,0,0-.09-2.71c-.76-.84-3.76-2.24-4.43-1.53s1.06,3.08,1.82,3.92a1.93,1.93,0,0,0,2.7.32"/><path class="cls-9" d="M149.3,195.22a1.94,1.94,0,0,0,1.84-2c0-1.14-1.13-4.23-2.11-4.19s-1.39,2.94-1.43,4.08a1.92,1.92,0,0,0,1.7,2.11"/><path class="cls-9" d="M145,186.71a2,2,0,0,0,2.7-.34c.76-.85,1.87-4,1.1-4.57s-3,1.34-3.73,2.19a1.94,1.94,0,0,0-.07,2.72"/><path class="cls-9" d="M132.91,179.58a1.93,1.93,0,0,0,2.69-.34c.76-.85,1.88-4,1.1-4.56s-3,1.34-3.73,2.19a1.92,1.92,0,0,0-.06,2.71"/><path class="cls-9" d="M138,171.75a1.93,1.93,0,0,0,2.41,1.25c1.12-.26,3.79-2.19,3.51-3.12s-3.21-.59-4.32-.33a1.94,1.94,0,0,0-1.6,2.2"/><path class="cls-9" d="M127.23,158.5a1.93,1.93,0,0,0,1.75,2.08c1.13.18,4.34-.58,4.43-1.55s-2.73-1.77-3.86-1.95a1.94,1.94,0,0,0-2.32,1.42"/><path class="cls-9" d="M133.77,155.91a1.93,1.93,0,0,0,.6,2.65c.92.67,4.13,1.47,4.65.65s-1.62-2.83-2.54-3.5a1.93,1.93,0,0,0-2.71.2"/><path class="cls-4" d="M205.59,399.58c4.42,1.42,6.44,6.76,4.49,11.94s-7.11,8.22-11.54,6.8-6.45-6.76-4.51-11.93,7.12-8.23,11.56-6.81"/><path class="cls-10" d="M204.59,400.45a2.23,2.23,0,1,1-2.53,2.11,2.33,2.33,0,0,1,2.53-2.11"/><path class="cls-4" d="M196.66,112.69l.44-.23a2.9,2.9,0,0,1,3,.12h0a2.88,2.88,0,0,0,2.62.36l.45-.14a3.12,3.12,0,0,0,1.85-1.89v-.06a2.8,2.8,0,0,1,2.3-1.9l.49-.08a2.79,2.79,0,0,1,2.76,1.12v0a3,3,0,0,0,2.35,1.25h.48a2.93,2.93,0,0,0,2.37-1.13l0,0a2.85,2.85,0,0,1,2.81-1l.48.1a2.85,2.85,0,0,1,2.22,2l0,0a3,3,0,0,0,1.76,2l.45.18a3,3,0,0,0,2.62-.28l.05,0a2.89,2.89,0,0,1,3,0l.4.24A2.85,2.85,0,0,1,231,116v0a2.93,2.93,0,0,0,1,2.43l.38.34a2.94,2.94,0,0,0,2.56.62h0a2.84,2.84,0,0,1,2.81,1l.31.37a2.86,2.86,0,0,1,.4,3v0a2.93,2.93,0,0,0,.07,2.63l.25.43a2.89,2.89,0,0,0,2.19,1.48l0,0a2.82,2.82,0,0,1,2.3,1.93l.17.45a2.94,2.94,0,0,1-.64,2.93l0,0a2.92,2.92,0,0,0-.8,2.51l.07.47a3,3,0,0,0,1.56,2.16h0a2.86,2.86,0,0,1,1.51,2.59l0,.49a2.82,2.82,0,0,1-1.58,2.53l-.05,0a3,3,0,0,0-1.61,2.08l-.1.49a2.87,2.87,0,0,0,.73,2.54v0a2.85,2.85,0,0,1,.53,2.95L243,153a2.85,2.85,0,0,1-2.38,1.85l0,0a2.87,2.87,0,0,0-2.23,1.39l-.26.42a2.92,2.92,0,0,0-.19,2.62l0,0a2.87,2.87,0,0,1-.52,3l-.31.37a2.9,2.9,0,0,1-2.88.92h0a3,3,0,0,0-2.59.55l-.37.31a3,3,0,0,0-1.09,2.41l0,0a2.91,2.91,0,0,1-1.49,2.59l-.44.24a3,3,0,0,1-1.53.36l-2.59-4.85-23.95-44.95L196.25,113a1.91,1.91,0,0,1,.41-.29"/><path class="cls-10" d="M200.13,120.24c11.48-6.09,25.85-1.5,32.12,10.28s2,26.19-9.43,32.31l-22.69-42.59"/><path class="cls-11" d="M227.31,153.7a2.37,2.37,0,0,1-3.45,3.26c-.9-1-3.14-5.26-2.19-6.16s4.75,1.95,5.64,2.9"/><path class="cls-11" d="M229,142.64a2.38,2.38,0,0,1,.38,4.74c-1.3.1-6.07-.83-6.17-2.14s4.49-2.49,5.79-2.6"/><path class="cls-11" d="M225.07,131.72a2.38,2.38,0,1,1,3.13,3.58c-1,.87-5.38,2.94-6.24,2s2.13-4.67,3.11-5.54"/><path class="cls-11" d="M215.66,125.28a2.37,2.37,0,0,1,4.3,2c-.55,1.19-3.72,4.86-4.9,4.31s0-5.13.6-6.32"/><path class="cls-11" d="M205.14,123.91a2.35,2.35,0,0,1,2.15-2.56,2.39,2.39,0,0,1,2.58,2.15c.11,1.31-.8,6.08-2.11,6.19s-2.52-4.47-2.62-5.78"/><path class="cls-7" d="M731.75,174.58a13.5,13.5,0,0,1-.3-18.92,13.13,13.13,0,0,1,18.71-.31,13.48,13.48,0,0,1,.3,18.91A13.14,13.14,0,0,1,731.75,174.58Zm33.17-34.66a34.2,34.2,0,0,0-48.73.82A35.12,35.12,0,0,0,717,190a34.19,34.19,0,0,0,48.72-.82,35.12,35.12,0,0,0-.8-49.26"/><path class="cls-12" d="M737.83,143.71h0a1.79,1.79,0,0,1,0-2.5l2.42-2.53a1.73,1.73,0,0,1,2.47,0,1.77,1.77,0,0,1,.05,2.49l-2.43,2.53a1.74,1.74,0,0,1-2.47.05"/><path class="cls-12" d="M760.36,178.54h0a1.72,1.72,0,0,1-2.43-.39l-2.06-2.85a1.77,1.77,0,0,1,.38-2.46,1.72,1.72,0,0,1,2.43.39l2.07,2.84a1.79,1.79,0,0,1-.39,2.47"/><path class="cls-12" d="M728.77,148.65l-.06.31a1.59,1.59,0,0,1-1.87,1.26l-2.46-.49a1.61,1.61,0,0,1-1.25-1.88l.06-.31a1.59,1.59,0,0,1,1.87-1.27l2.46.5a1.61,1.61,0,0,1,1.25,1.88"/><path class="cls-12" d="M747,187.64l0,.31a1.58,1.58,0,0,1-1.87,1.26l-2.47-.49a1.61,1.61,0,0,1-1.24-1.89l.06-.31a1.58,1.58,0,0,1,1.86-1.26l2.46.49a1.61,1.61,0,0,1,1.25,1.89"/><path class="cls-12" d="M755.28,149.1l-.25.2a1.58,1.58,0,0,1-2.24-.25l-1.55-2a1.6,1.6,0,0,1,.24-2.25l.25-.2a1.58,1.58,0,0,1,2.23.25l1.57,2a1.62,1.62,0,0,1-.25,2.25"/><path class="cls-12" d="M735.11,188.62h0a1.74,1.74,0,0,1-2.45-.28l-1.37-1.74a1.77,1.77,0,0,1,.27-2.48,1.73,1.73,0,0,1,2.45.28l1.37,1.74a1.77,1.77,0,0,1-.27,2.48"/><path class="cls-12" d="M766,160.92l0,.32a1.61,1.61,0,0,1-1.5,1.69l-2.5.15a1.6,1.6,0,0,1-1.68-1.51v-.32a1.59,1.59,0,0,1,1.49-1.7l2.5-.14a1.59,1.59,0,0,1,1.68,1.51"/><path class="cls-12" d="M723.52,176.31l0,.32a1.6,1.6,0,0,1-1.49,1.69l-2.51.15a1.61,1.61,0,0,1-1.68-1.52v-.31a1.6,1.6,0,0,1,1.49-1.7l2.51-.14a1.58,1.58,0,0,1,1.67,1.51"/><path class="cls-12" d="M721,163.93h0a1.74,1.74,0,0,1-2.43-.46l-2-2.92a1.79,1.79,0,0,1,.45-2.45,1.74,1.74,0,0,1,2.43.46l2,2.92a1.77,1.77,0,0,1-.46,2.45"/><polyline class="cls-9" points="766.89 290.38 702.04 335.74 700.43 331.5 683.37 286.87 728.39 255.37 766.89 290.38"/><polyline class="cls-13" points="690.03 276.85 728.38 276.85 728.38 330.87 690.03 330.87"/><polyline class="cls-14" points="747.58 303.89 753.45 299.78 753.45 299.78 747.58 303.89"/><polyline class="cls-13" points="738.66 310.12 707.57 269.94 715.34 264.51 753.45 299.78 747.58 303.89 738.66 310.12"/><path class="cls-15" d="M708.39,265.1s-8.74,4.82-14.79,7.35-16.12,7.68-15.82,13.32,5.85,10,8.55,8.61,4.06-3.36,5.19-6.23.41-4.66.05-6.41c0,0-.23-1.85,2.43.46s5.09,14.67,8.84,19.09,8.84-.08,6.7-4.13c-1.67-3.17-15-13.37-14.23-16.61s3.51-4.19,5.44-2.16,3.28,9.64,6.11,12.27,6.45-1.39,4.41-4.51-9.94-8-8.94-9.73,5.89.92,11.18.47,6.52-7.81,6.33-11.07,2.82-10.3,9.38-6.3,12.06,21.13,15.57,24.66,11.05,0,8.13-6.07c-2.48-5.1-15.08-14.2-20-18.84-1-.91-1.84-2.25-1.45-3.52.61-2-.18-4.19-2.34-5.83-3.92-3-10.55-1.67-14.59,3.74a48.5,48.5,0,0,0-6.1,11.44"/><path class="cls-15" d="M716.6,259s-5.94,2.85-6.29,3.1-9.3,2.34-13.28,5.78a86,86,0,0,0-8.82,9.55s21.35-9.33,21.61-9.52,6.79-8.91,6.79-8.91"/><path class="cls-8" d="M700.12,240.31c3.07.43,6.41,2.06,7.82,4.84,2.27,4.44-.48,10-2,12.83-.32.58-.81.94-.93,1.26,1.54-3.5,3.58-7.3,3.09-11.13-.49-4.05-4.12-6.25-8.16-6.67l.16-1.13"/><path class="cls-7" d="M712.07,261.21c.64,3.05-2,6.19-6,7s-7.64-1-8.28-4,2-6.19,6-7,7.64,1,8.28,4"/><path class="cls-16" d="M707,257.08c3.88,3,1.49,8.62-4.17,9.8a9.08,9.08,0,0,1-3.19.1,8,8,0,0,0,6.46,1.24c3.93-.82,6.61-4,6-7-.46-2.19-2.51-3.74-5.07-4.13"/><path class="cls-4" d="M759.71,212.84c.07.16.15.31.22.47l1.33,2.92.36.8,29.6-7.32,17-12.46-1.76-4.88-1.59.5-.84,1.67-1.87.06-.88,1.65-1.87,0-.92,1.63-1.87,0-1,1.62-1.87-.07-1,1.59-1.87-.11-1,1.57-1.87-.15-1,1.55-1.86-.2L784,205.2l-1.85-.25L781,206.44l-1.85-.3L778,207.58l-1.85-.36-1.24,1.41-1.81-.43-1.29,1.36-1.8-.51-1.36,1.31-1.77-.6L765.47,211l-1.74-.68-1.49,1.14-1.7-.8-1.57.57c.24.54.49,1.08.74,1.62"/><path class="cls-10" d="M761.5,216.62c-.39,0,9.48,18.11,10.93,23.37s8,23.38,8,23.38l47.81-18.69s-12.6-24.15-15.46-32.13-4.15-15.34-4.55-15.3-33.81,18-46.7,19.37"/><path class="cls-8" d="M799.61,261.28s6.09,9.46,21.49,5.78c14.2-3.38,12.83-18.71,5.32-19.27s-15.39,1-19.83-.5c-8.16-2.65-11.34,9.55-7,14"/><path class="cls-9" d="M817.7,241.92a10.29,10.29,0,0,0-.51,4.66,11.63,11.63,0,0,0,5.8,8.8c8.08,4.75,25.86.11,22.19-9.15s-11.75-1.21-16.68-3.55c-2.21-1-3.65-3.13-6.1-3.53a4.79,4.79,0,0,0-4.7,2.77"/><path class="cls-9" d="M829.38,209.77a10.46,10.46,0,0,0,3.75,2.82,11.68,11.68,0,0,0,10.53-.52c8.21-4.51,13.28-22.18,3.45-23.74s-7,9.48-11.56,12.54c-2,1.37-4.56,1.54-6.14,3.44a4.77,4.77,0,0,0,0,5.46"/><path class="cls-9" d="M798.58,252.55a14.58,14.58,0,0,1-10.1,1.38c-2.52-.59-8.32-.91-11.5,2.15-5.79,5.56-3,13.94,5.34,17.24,7.28,2.89,28,1,27.92-14,0-10.5-6.35-9.56-11.66-6.77"/><path class="cls-11" d="M814.15,223.36c2.09,5.91-4.86,13.79-15.54,17.59s-21,2.1-23.14-3.8,4.84-13.78,15.52-17.58,21-2.11,23.16,3.79"/><path class="cls-8" d="M779.87,267.7c1.35-1,2.09-2.87,2.85-4.34a19.67,19.67,0,0,0,1.94-5.29c.1-.51-.57-.62-.8-.24-.94,1.57-1.71,3.27-2.51,4.92-.71,1.45-1.86,2.93-2.17,4.53a.44.44,0,0,0,.69.42"/><path class="cls-8" d="M784.86,269.2c2.5-1,4.47-7.39,5-10.06.15-.65-.93-1-1.13-.34a33.25,33.25,0,0,1-2.16,5.28c-.72,1.43-2.18,3.1-2.29,4.69a.4.4,0,0,0,.53.43"/><path class="cls-8" d="M792.31,268a9.45,9.45,0,0,0,.79-3.25c.18-1.22.53-2.42.71-3.64a1,1,0,0,0-1.84-.55c-.84,2-1.64,5.33-.72,7.42a.58.58,0,0,0,1.06,0"/><path class="cls-8" d="M797.69,266.56c.24-1.46.39-3.47-.42-4.79-.58-.95-2.06,1.23-.48,4.89a.47.47,0,0,0,.9-.1"/><path class="cls-8" d="M799.4,261.77c.71,3.4,2.42,2.47,2.27,1.63a4.31,4.31,0,0,0-1.36-2.13.57.57,0,0,0-.91.5"/><path class="cls-8" d="M822.75,243.87a9.79,9.79,0,0,0-1.44,3.19c-.27,1-.7,2.22-.07,3.2a.57.57,0,0,0,.78.12c.74-.71.74-1.69.94-2.65.24-1.17.53-2.27.7-3.45.07-.49-.61-.85-.91-.41"/><path class="cls-8" d="M825.58,245.4c-.53,1.38-1.47,5.36-1,6.85a.61.61,0,0,0,1.12,0,9.2,9.2,0,0,0,.49-3.13c.14-1.16.33-2.3.4-3.46,0-.54-.76-.88-1-.29"/><path class="cls-8" d="M829.45,245.82c-.11,1.24-.38,5.48,0,6.78.15.43.93.5,1.08,0,.61-2,.13-4.71-.13-6.78a.51.51,0,0,0-1,0"/><path class="cls-8" d="M833,246.31a7.86,7.86,0,0,0,0,2.42c.18,1.9.19,2.94,1,3a.84.84,0,0,0,1-.94,18.18,18.18,0,0,0-.86-4.61.59.59,0,0,0-1.12.13"/><path class="cls-8" d="M837,246.43c-.62,1.31-.46,3.26.53,3.36a.79.79,0,0,0,.88-.41c.43-.81-.54-1.44-.43-2.65a.52.52,0,0,0-1-.3"/><path class="cls-8" d="M834.51,206.53c.7,1.34,1.54,1.29,2.26,4.09.24.87,1.68.5,1.54-.38-.25-1.65-1.47-4.07-3.33-4.28-.29,0-.62.27-.47.57"/><path class="cls-8" d="M836.66,204.7c4,3.54,3.39,4.8,4.84,5.49a.55.55,0,0,0,.75-.4c.25-1.24-1-2.6-1.79-3.44a9.47,9.47,0,0,0-3.34-2.42.45.45,0,0,0-.46.77"/><path class="cls-8" d="M839.45,201.44c4.51,3.11,4.63,5,6,4.87a.5.5,0,0,0,.4-.3c.39-1.2-1.22-2.32-2-3a14.3,14.3,0,0,0-3.9-2.37c-.49-.2-1,.5-.51.82"/><path class="cls-8" d="M841.89,197.65c1.59,1.13,3.34,2,4.85,3.28a1,1,0,0,0,1.23-1.54,10.73,10.73,0,0,0-5.67-2.68c-.49,0-.88.61-.41.94"/><path class="cls-8" d="M846.84,195.18a.83.83,0,0,0,.94.27h0a.47.47,0,0,0,.39-.28l0,0a.84.84,0,0,0-.13-1.12,3.88,3.88,0,0,0-3.34-.9c-.47.1-.59.89,0,.94a3.35,3.35,0,0,1,2.22,1.06"/><path class="cls-9" d="M841.08,224a13.39,13.39,0,0,0,3.43,5.67c3.9,4,9.74,6,15.94,5.79,15.51-.43,36.26-18.53,22.91-26.39s-17.51,7.1-26.49,8c-4,.41-7.9-.93-11.66.38-3,1.06-4.65,4.39-4.13,6.54"/><path class="cls-8" d="M851.63,221.14c-.69.82-.09,2.12,0,3,.06,1.08-.48,2.5.14,3.49a.55.55,0,0,0,.73.14c1.12-.84.88-2.45.76-3.58-.09-1-.15-2.67-1.44-3.12a.15.15,0,0,0-.15,0"/><path class="cls-8" d="M856.4,220.47a36.62,36.62,0,0,0,.67,4.51c.19,1.48-.12,3.11.56,4.5a.58.58,0,0,0,1,0c.76-1.32.37-3,.17-4.43a10.16,10.16,0,0,0-1.52-4.68c-.19-.27-.84-.28-.84.12"/><path class="cls-8" d="M862.13,219.14c2,6.79,1.3,8.4,2.62,9.91.79.88,3.24,0-1.78-10.12-.18-.37-1-.19-.84.21"/><path class="cls-8" d="M866.69,217.09c-.27,1.47,1.2,3.36,1.92,4.68a24.17,24.17,0,0,0,3,4.81c.42.48,1.43.1,1.28-.46a23.12,23.12,0,0,0-2.41-5.05c-.73-1.33-1.48-3.46-3-4.28a.55.55,0,0,0-.82.3"/><path class="cls-8" d="M871.24,213.92c1.92,2.5,3.55,5.2,5.57,7.65.88,1.08,2.69,0,2.23-1.12-1.26-2.88-4.13-5.35-7.16-7.08-.45-.26-.9.2-.64.55"/><path class="cls-8" d="M876.22,212c.76,1.09,2.34,3.57,3.91,3.53.56,0,1.08-.25,1.13-.75.14-1.35-2.87-2.8-4.07-3.41-.49-.26-1.32.14-1,.63"/><path class="cls-17" d="M617,165.75a11.41,11.41,0,0,0-6.38,5.79c-1.42,3.47-.6,10.38,3.72,16.34a18.93,18.93,0,0,0,17,8.16,37.13,37.13,0,0,0,25.37-13.19c4-5,5.93-10.31,5.3-15a14.36,14.36,0,0,0-7.25-10.94c-4-2.3-8.57-2.55-10.8-1.62a9.44,9.44,0,0,0-5,6.63c-.32,1.57-.14,3,.46,3.59a5.1,5.1,0,0,1-2.14,8.41,24.85,24.85,0,0,1-1.24,2.21,5.09,5.09,0,0,1-8.62-5.41c1.26-2,1.3-3.07,1.23-3.28-1.08-2.55-4.19-2.92-5.94-2.91a15,15,0,0,0-5.69,1.22Zm29.5,37a46,46,0,0,1-14.43,3.48,29.07,29.07,0,0,1-26-12.35c-6-8.23-7.93-18.75-4.89-26.17,3.57-8.71,13.49-13.3,21.44-13.34a19.07,19.07,0,0,1,7.64,1.47A19.16,19.16,0,0,1,640,145.9c5.6-2.35,13.36-1.49,19.78,2.18a24.52,24.52,0,0,1,12.3,18.4c1,7.52-1.65,15.61-7.49,22.79a46.75,46.75,0,0,1-18.12,13.45"/><path class="cls-8" d="M667.43,163.92a45.87,45.87,0,0,1-5.54,3.33c0,.2.07.39.1.6.63,4.69-1.24,10-5.28,15a43.86,43.86,0,0,0,7.16-2.32,55.63,55.63,0,0,0,7.45-3.85,25.26,25.26,0,0,0,.76-10.18,27.18,27.18,0,0,0-.65-3.28,4.58,4.58,0,0,0-4,.72"/><path class="cls-8" d="M623,194.81a20,20,0,0,1-8.68-6.93c-.34-.47-.64-.94-.95-1.43-3,2.6-6,4.81-8.06,6.31l.77,1.09a30.6,30.6,0,0,0,8.39,8c2.34-1.75,5.4-4.18,8.53-7"/><path class="cls-17" d="M662.34,175.19c-8.8,3.7-21.5,6.46-30.28-2.59a5.1,5.1,0,0,1,7.32-7.09c8.31,8.58,27.09-4,27.27-4.1a5.09,5.09,0,1,1,5.79,8.38,59.28,59.28,0,0,1-10.1,5.4"/><path class="cls-17" d="M610.15,198.61a5.09,5.09,0,0,1-4.65-9c4.58-2.86,17.44-11.8,21.88-18.87a5.09,5.09,0,1,1,8.62,5.41c-6.59,10.51-24.37,21.64-25.13,22.11a4.89,4.89,0,0,1-.72.37"/><path class="cls-10" d="M186.82,235.65s-1.49,5.17,2.9,8.24,15.35-4.92,19-6.58,5.09-.36,5.09-.36-8.33-16.92-21.23-14.29c-7.7,1.56-8.07,7.11-5.79,13"/><path class="cls-4" d="M204.3,236.7c-1.28-.21-4.44-.89-5.66-1.83a117.08,117.08,0,0,1,12.13.77c-2-.46-4.59-.95-7.36-1.32.22-1.7,3.55-2.3,3.58-2.31a.18.18,0,1,0-.06-.35c-.15,0-3.62.65-3.88,2.61-1.24-.16-2.54-.3-3.84-.41.42-3.05,5.07-4.59,5.12-4.6a.19.19,0,0,0,.12-.22.18.18,0,0,0-.23-.11c-.21.07-4.94,1.63-5.35,4.9-1.37-.1-2.74-.17-4.07-.17,0-3.9,5.4-6.72,5.46-6.75a.18.18,0,0,0-.16-.32c-.24.13-5.66,3-5.64,7.06a34.31,34.31,0,0,0-4.68.3c-.57-3.92,3.57-7.61,3.61-7.65a.18.18,0,0,0,0-.25.19.19,0,0,0-.25,0c-.19.17-4.34,3.88-3.73,8a17.19,17.19,0,0,0-1.74.37c-6,1.67-7.42-2.62-7.78-3.05a.7.7,0,0,0-.85-.37c-1.46.46.74,3.5,2.38,4.55,2.78,1.71,5,.92,7.87.23a8.71,8.71,0,0,0,5.87,5.06h0a.18.18,0,0,0,.18-.14.17.17,0,0,0-.14-.21,8.32,8.32,0,0,1-5.58-4.79,23.84,23.84,0,0,1,3.5-.53c1.36,2.55,6.3,3.3,6.53,3.33h0a.17.17,0,0,0,.17-.15.18.18,0,0,0-.15-.2c-.06,0-4.81-.73-6.2-3,1.48-.12,3-.18,4.59-.19,1.25,1.36,5.91,2.13,6.11,2.17a.19.19,0,0,0,.21-.15.18.18,0,0,0-.15-.2"/><path class="cls-15" d="M129,230.15s-22-4.91-29.48,15.68-3.51,39.31,10,42.35,16.39-7.5,30.89-8.66,24.81-27.84,13.11-39.54S129,230.15,129,230.15"/><path class="cls-9" d="M138.13,259.18a15.21,15.21,0,1,1-15.2-15.2,15.21,15.21,0,0,1,15.2,15.2"/><path class="cls-17" d="M122.93,244a16.12,16.12,0,0,0-2,.12,15.21,15.21,0,0,1,0,30.16,14.36,14.36,0,0,0,2,.13,15.21,15.21,0,0,0,0-30.41"/><path class="cls-17" d="M144.35,324.83c-1.53-2.81-1.8-5.77.33-8.75,4.78-6.65,15.49-9.56,25-10.94,32.33-4.68,70.91,13.34,73.38,33.69s-19.9,37.67-37.84,37.67-34.42-23.86-37.38-29.25c-2.76-5-8.23-8.23-13.12-12-3.77-2.94-8.24-6.52-10.34-10.39"/><path class="cls-8" d="M243,338.83c-2.47-20.35-41.05-38.37-73.38-33.69-9.48,1.38-20.19,4.29-25,10.94l-.11.15a64.18,64.18,0,0,1,15.19-3.87c32.33-4.67,70.9,13.34,73.38,33.7,1.18,9.75-3.34,18.81-10.34,25.59,12.09-6.54,21.9-19,20.22-32.82"/><path class="cls-11" d="M215.18,351.12c0,5.3-5.87,9.59-13.12,9.59s-13.13-4.29-13.13-9.59,5.88-9.6,13.13-9.6,13.12,4.3,13.12,9.6"/><path class="cls-8" d="M210.06,351.12c0,3.23-3.58,5.84-8,5.84s-8-2.61-8-5.84,3.59-5.85,8-5.85,8,2.62,8,5.85"/><path class="cls-11" d="M214.15,359.5a3.11,3.11,0,1,1-3.07-2.54,2.85,2.85,0,0,1,3.07,2.54"/><path class="cls-11" d="M185.65,319.76s-20.8,4.33-23,15.68c0,0,11.36-12.52,23-15.68"/><path class="cls-11" d="M197.72,324s-28.59,7.9-25.83,20.47c0,0,10.7-14.86,25.83-20.47"/><path class="cls-17" d="M91.89,371.31c-5.77,13.56-19.28,1.46-19.28,1.46s.94,11-12.82,11-5.08-16.13-5.08-16.13-14.12,4.4-11.16-13,22.3-6.05,22.3-6.05,2.94-11.71,15.15-7.19,2.43,14.28,2.43,14.28S97.67,357.74,91.89,371.31ZM87.29,354s12.26-12.24-3.05-17.92-19,9-19,9-24.24-14.26-28,7.6,14,16.33,14,16.33-10.89,20.23,6.37,20.23,16.08-13.8,16.08-13.8,16.94,15.18,24.18-1.83S87.29,354,87.29,354"/><path class="cls-4" d="M249.62,240.49s-4.17-19.26-15.11-17.47-8,10.27-4.58,10.27,2.55-6.15,8.28-4.26,9,11.46,9,11.46h2.36"/><path class="cls-7" d="M237.27,248.12s-9-2.77-14.28,5.41,1.11,26.76,15.25,38.27,23.44,16.77,27.31,15,3.19-4.3,3.19-4.3,13.6,6,14.56-7.07c0,0,10.12,6.1,11.64-7.77s-7.89-61-25.92-58.5a11.22,11.22,0,0,0-10.89,9.15s-17.94-10-20.86,9.84"/><path class="cls-9" d="M234.77,252.56c-2.3-1.56-9-1.94-8,7.76s30.45,42.84,35.44,41.46-15.77-41.35-27.45-49.22"/><path class="cls-9" d="M254.42,243c-1.87-2-8.69-5-10.63,2.22s27.31,58.92,31.61,53.24-10.78-44.71-21-55.46"/><path class="cls-9" d="M273.59,236.34c-1.42-1.77-6.32-4.28-9-1.11-5.81,6.86,18.3,62.67,21.77,56.57s-3.84-44.38-12.76-55.46"/><path class="cls-4" d="M154.27,379.14s-1.63,4.45-22.22,11.7c-23,8.09-33.69,9.59-40.48,31.59a159.5,159.5,0,0,1,22.23-3.51c21.93-1.76,38.19-20.3,40.47-39.78"/><path class="cls-4" d="M154.28,378.85s2.05,3,5,21.93c4.79,30.53-17.2,42.7-33.34,36.85,0,0,17.43-9,20.13-23.16,2.43-12.71,8.18-35.62,8.18-35.62"/><path class="cls-11" d="M132.51,403.47a7.14,7.14,0,1,1-7.14-7.14,7.14,7.14,0,0,1,7.14,7.14"/><path class="cls-11" d="M118.94,408.74a4.91,4.91,0,1,1-4.91-4.92,4.91,4.91,0,0,1,4.91,4.92"/><path class="cls-11" d="M109,413a4.92,4.92,0,1,1-4.92-4.91A4.92,4.92,0,0,1,109,413"/><path class="cls-11" d="M142.34,397.15a4.92,4.92,0,1,1-4.91-4.91,4.91,4.91,0,0,1,4.91,4.91"/><path class="cls-10" d="M127.48,397.15c10-1.46,20.74-11.65,25-16-2.42,2-7.94,5.33-20.38,9.71-23,8.09-33.69,9.59-40.47,31.59,0,0,23.16-23.4,35.9-25.28"/><path class="cls-10" d="M154.14,380.2c-2.3,9.36-32.47,29.71-43.17,32.38a53.35,53.35,0,0,0-19.39,9.85,160.06,160.06,0,0,1,22.22-3.52c21.54-1.72,37.6-19.62,40.34-38.71"/><path class="cls-6" d="M154.24,378.73s-8.13-.23-6.49,2.28,5-.14,5-.14-2.6,1.49-2.22,3.62,2.79,1.14,3.34,0a4.26,4.26,0,0,0,.38-2.26s0,3.22,1.57,3.52,0-3.86,0-3.86,1.26,1.79,2.06,1-3.63-4.15-3.63-4.15"/><path class="cls-6" d="M153.86,380.42a13.41,13.41,0,0,0,.87-5.26c0-4.8-1.18-5.88.07-6.12a.71.71,0,0,1,.83.56c.16.84.27,7.37-1.77,10.82"/><path class="cls-10" d="M148.42,426.05a8.47,8.47,0,0,1-1.13,6.15c-2.08,2.88-7.6,3.17-9.86,1.63a8.91,8.91,0,0,0,4,.37c4.19-.6,5.41-2,6.23-4.13a12.54,12.54,0,0,0,.72-4"/><path class="cls-10" d="M153.34,411.55a8.1,8.1,0,0,1-4.91,14.5c7.53-1.59,9.53-9.2,4.91-14.5"/><path class="cls-10" d="M154.27,398a8.27,8.27,0,0,1,4.17,7.72,7,7,0,0,1-.19,1.1,7,7,0,0,1-4.91,4.7c6.16-3.42,5.39-9.5.93-13.52"/><path class="cls-6" d="M622,227.06c-2.29-1-3.6-3-3-4.57s3.05-2,5.34-1,3.6,3,2.94,4.56S624.28,228,622,227.06Zm4.5-10.46c1.62.7,2.59,2.07,2.15,3.07s-2.08,1.23-3.71.54-2.59-2.07-2.16-3.07S624.88,215.9,626.5,216.6Zm.94-2.21c-3-1.29-7,1.14-8.81,5.45s-.91,8.84,2.11,10.14,7-1.13,8.81-5.44.92-8.85-2.11-10.15"/><path class="cls-18" d="M607.66,226.31a20.4,20.4,0,0,0-5.14,7.16l-24.54,57a6.8,6.8,0,0,0,3.62,9l32.62,14a6.83,6.83,0,0,0,9-3.53l24.54-57.06a20.51,20.51,0,0,0,1.66-8.64l-41.75-18"/><path class="cls-18" d="M607.66,226.31a20.4,20.4,0,0,0-5.14,7.16l-24.54,57a6.8,6.8,0,0,0,3.62,9l32.62,14a6.83,6.83,0,0,0,9-3.53l24.54-57.06a20.51,20.51,0,0,0,1.66-8.64l-41.75-18"/><path class="cls-7" d="M647.75,252.92,623.21,310a6.83,6.83,0,0,1-9,3.52l-32.62-14a6.82,6.82,0,0,1-3.62-9l24.54-57.06a20.27,20.27,0,0,1,5.14-7.15l41.75,18a20.48,20.48,0,0,1-1.66,8.64"/><path class="cls-9" d="M586.62,294.25l24.54-57.06A20.53,20.53,0,0,1,616.3,230l-8.65-3.73a20.66,20.66,0,0,0-5.14,7.16l-24.55,57a6.84,6.84,0,0,0,3.63,9l8.66,3.72a6.82,6.82,0,0,1-3.63-8.95"/><path class="cls-16" d="M647.75,252.92,623.21,310a6.83,6.83,0,0,1-9,3.52l-13.33-5.73a6.87,6.87,0,0,0,9.05-3.51l24.54-57.06a20.36,20.36,0,0,0,1.64-8.65l13.29,5.72a20.48,20.48,0,0,1-1.66,8.64"/><path class="cls-5" d="M649.4,244.28l-41.76-18a3.63,3.63,0,0,1,4.76-1.87l35.09,15.1a3.6,3.6,0,0,1,1.91,4.74"/><polyline class="cls-5" points="628.05 298.72 582.82 279.26 579.77 286.35 625 305.81 628.05 298.72"/><polyline class="cls-19" points="649.25 405.81 628.86 421.53 593.17 375.22 613.56 359.51 649.25 405.81"/><polyline class="cls-5" points="609.96 350.22 607.95 350.34 607.75 351.46 606.4 351.53 606.2 352.65 604.85 352.73 604.65 353.84 603.31 353.92 603.11 355.03 601.76 355.11 601.56 356.22 600.22 356.3 600.02 357.41 598.67 357.49 598.47 358.6 597.13 358.68 596.92 359.79 595.58 359.87 595.38 360.98 594.04 361.06 593.83 362.17 592.49 362.25 592.29 363.36 590.95 363.44 590.74 364.56 589.4 364.63 589.2 365.75 587.86 365.83 587.65 366.94 586.32 367.02 586.1 368.13 584.76 368.21 584.44 370 584.36 370.06 584.42 370.08 584.41 370.13 584.58 370.12 590.48 371.73 593.17 375.22 613.56 359.51 610.87 356.02 610.01 350.29 609.94 350.35 609.96 350.22"/><polyline class="cls-5" points="657.22 411.55 651.76 409.08 649.25 405.81 628.86 421.53 631.38 424.79 631.55 431.09 631.51 431.25 631.56 431.25 631.57 431.32 631.64 431.26 633.5 431.44 633.89 430.14 635.04 430.25 635.45 428.95 636.59 429.06 636.99 427.76 638.13 427.87 638.54 426.56 639.68 426.68 640.08 425.37 641.22 425.49 641.63 424.18 642.77 424.3 643.17 422.99 644.32 423.11 644.72 421.8 645.86 421.92 646.26 420.61 647.4 420.72 647.81 419.42 648.95 419.53 649.35 418.23 650.49 418.34 650.9 417.04 652.04 417.15 652.44 415.84 653.58 415.96 653.99 414.66 655.14 414.77 655.54 413.46 656.67 413.58 657.28 411.62 657.14 411.6 657.22 411.55"/><polyline class="cls-11" points="640.9 403.9 629.13 412.98 601.42 377.02 613.2 367.95 640.9 403.9"/><polyline class="cls-6" points="593.17 375.22 601.42 377.02 613.19 367.95 613.56 359.51 593.17 375.22"/><polyline class="cls-6" points="628.86 421.53 629.14 412.98 640.9 403.9 649.25 405.81 628.86 421.53"/><path class="cls-7" d="M529.29,84.63c1.28-5.06,2.79-10.08,8.11-12.26,4.59-1.89,10.06.07,13.09,3.85,8.76,10.94-8.9,31.07-19.65,40.21-3,2.58-7.35,4.63-8.91,8.4l1-1.67c-.47.54-.93,1.08-1.4,1.61-2,2.27-.12,6.27,3.09,5.32,4.14-1.23,4.32-.82,11.32-6.55a92.17,92.17,0,0,0,9.22-8.67c5.82-6.27,11.27-13.36,14.46-21.36,8-20.18-9.76-34.78-24.41-29.5-7.78,2.8-15.51,11.91-12.89,20.62,1,3.35,6.09,3.56,7,0"/><path class="cls-7" d="M524,154.29c5.62,0,5.63-8.73,0-8.73s-5.62,8.73,0,8.73"/><path class="cls-7" d="M468.83,37.44c-3.3-8.88-.88-20.21,7.26-25.73C484,6.35,495.38,8,502,14.78c8.54,8.74,7.1,24.42,3.63,35.06A48.84,48.84,0,0,1,496.78,66c-4.29,5.15-9.51,9.41-14.43,13.92-10.2,9.34-21.8,24.22-14.84,38.66,1.76,3.68,6.92,1,6.23-2.62C469.51,94,495,84,506.91,66.14a58.62,58.62,0,0,0,8.22-19.21c3-13.25,2.33-30.29-8.81-39.74-9.25-7.84-23.57-9.87-34-3.07-11.56,7.55-16.54,23.68-10,36.07,1.85,3.51,7.94,1.09,6.52-2.75"/><path class="cls-7" d="M485.93,140.75a7.79,7.79,0,1,1-7.8-7.79,7.8,7.8,0,0,1,7.8,7.79"/><path class="cls-7" d="M696.94,421.56c-2.77,4.08-6.79,6.18-9,4.69s-1.77-6,1-10.09,6.78-6.17,9-4.69,1.76,6-1,10.09"/><path class="cls-9" d="M742.73,433.47a7.55,7.55,0,1,1-7.56-7.56,7.55,7.55,0,0,1,7.56,7.56"/><path class="cls-10" d="M782.61,423.55a7.55,7.55,0,1,1-7.55-7.55,7.55,7.55,0,0,1,7.55,7.55"/><path class="cls-6" d="M709,444.18c-1.34,2-5.42,1.54-9.13-1s-5.61-6.13-4.27-8.1,5.41-1.55,9.11.95,5.62,6.14,4.29,8.11"/><path class="cls-10" d="M724.42,412a5.78,5.78,0,1,1-5.78-5.77,5.78,5.78,0,0,1,5.78,5.77"/><path class="cls-7" d="M690.9,353.57c0,1.85-3.43,3.35-7.68,3.35s-7.69-1.5-7.69-3.35,3.45-3.35,7.69-3.35,7.68,1.5,7.68,3.35"/><path class="cls-9" d="M661.82,323.34c0,2.08-3.67,3.76-8.19,3.76s-8.19-1.68-8.19-3.76,3.67-3.75,8.19-3.75,8.19,1.68,8.19,3.75"/><path class="cls-20" d="M530.77,198.49c-10.26-16.5-28.34-28.87-48.4-28.91-36.18-.07-57.67,17.19-69.56,36.67-.38.63-.76,1.26-1.16,1.9-27.42,45.14-42.46,77.09-90.73,96.87-113.23,46.39-87.49,171.14-17.08,216.67,111.73,72.24,182.64,1,221.15-84.75,59.68-132.83,13.06-226.75,5.78-238.45"/><path class="cls-9" d="M541.58,371.92C508.25,368.8,418,377,377,383.59c-5.85,1,28.39,204.1,19,239.81l-19.06,39s114.81,24.66,172.51-6.53L517.22,606.7c5.76-26.33,49.93-232.37,24.36-234.78"/><path class="cls-21" d="M432.82,319.2s-5,121.25,23.83,123.74,29.48-71.4,29.85-80.47l2-49.39-55.68,6.12"/><path class="cls-22" d="M432.51,345h0v0m0-.17v0m0-.08v0m0-.14v0m0-.29v0m0-.14c-.09-12.32.19-21.56.29-24.2-.1,2.64-.38,11.88-.29,24.2M432.8,320v0m0-.06v0m0-.1h0m0,0h0m0,0h0m0-.13h0m0,0h0m0,0v0m0-.07h0m0,0h0m0,0h0m0-.06h0m0,0h0m0-.05v0m0-.05h0m0,0h0m0,0h0m0,0h0m0,0h0m0,0h0"/><path class="cls-23" d="M463.46,360.38c-10.23,0-21.65-4.52-30.94-15.39v-.38h0c0-.09,0-.19,0-.28h0v-.14h0c-.09-12.32.2-21.56.29-24.2h0v0h0v-.1h0v0h0v0h0v-.12h0v0a0,0,0,0,0,0,0h0v-.07h0v0h0v0h0v-.06h0v0h0v-.1h0v0h0l55.68-6.12-1.46,36c-4.69,6.95-13.57,11.27-23.58,11.27"/><path class="cls-21" d="M543.87,635.66c14.23-4.59,66.56-246.95-6-264,0,0,1.68,5.33-.83,50-2.93,52.05-18.29,166.75-18.29,166.75s-65.49-16.32-117.08-10.53L358.3,603.11l-6.6,28.16S367.37,647,370.65,647s-5.39-13.81-5.39-13.81,8.08,8.07,10.07,6.08-3.64-12.87-3.64-12.87l31.24-16.61s126.71,30.52,140.94,25.92"/><path class="cls-17" d="M537.73,371.63s-2.13.49-2.67,50c-.28,26.66-4.48,69.64-8.66,105.29a310.13,310.13,0,0,1,54.44,2.18c12-74.42,5.33-155.9-43.11-157.51"/><path class="cls-24" d="M340.47,435.23c-.61,50.55,5.61,127.49,37.9,171.09,8.44,11.39,24.57-21.26,24.57-21.26S390.45,381.49,377,383.6c-12.37,1.94-36,10-36.48,51.63"/><path class="cls-17" d="M399.72,539.08C395.14,479.17,386.29,382.14,377,383.6c-12.37,1.94-40.54,10-41,51.63-.41,33.41,2.22,80.08,13.33,119.3,10.07-5.78,25-12.88,36.85-13.69a107.18,107.18,0,0,0,13.63-1.76"/><path class="cls-24" d="M435.08,331.32a77.91,77.91,0,0,0-2.58,10.41c-1.05,6,1.28,11.82-3.28,17.67s12.16,40.83,12.16,40.83,3.53-12.88,2-24,.41-38.54,2.69-40.82-11-4.1-11-4.1"/><path class="cls-25" d="M419.05,306.25l-12.31,13.34L398,331.64s2.11,21.87.94,25.74-.59,6.54.82,11.57,10.53,29.84,11.12,39.31c0,0-16.8,52-20.66,61.12s-20.59,72.47-24,89.32c-2.32,11.27,7.46,48.95,18.27,53.62,10.55,4.55,23.05,6.08,33.32-53.62,2.59-15.1,20-133,20-137.92s4.89-10.3,5.27-20.55c.44-12.08-11.58-25.78-11.58-25.78l7.9-12.81,7-.87s7.63,7.63,9.82,5.44-4-9.3-4-9.3,2.45,2.92,4.5.87-9.42-15.09-9.42-15.09l-17.37-8.07-3.51.52-15,14-.8-16.49,6.31-11.76s11.7-12.34,2.17-14.68"/><path class="cls-26" d="M450.75,356.21c-.56-.24-1.1-.49-1.64-.75s-1.08-.53-1.61-.78l-1.6-.82c-.53-.28-1.06-.55-1.58-.84l.34.09c-1.06.06-2.14.11-3.21.15s-2.16.06-3.22.07l.54-.19q-3.37,2.79-6.92,5.39c-1.19.86-2.37,1.72-3.59,2.54s-2.44,1.64-3.72,2.39c1-1.09,2.07-2.11,3.14-3.12s2.15-2,3.24-2.95q3.31-2.89,6.77-5.6l.24-.2h.3c1.06,0,2.14,0,3.22.07s2.15.08,3.21.15h.21l.13.08c.49.33,1,.68,1.47,1s1,.69,1.45,1.06l1.43,1.08c.47.37.93.74,1.4,1.13"/><path class="cls-26" d="M450.75,354.22c-.54-.62-1.05-1.24-1.56-1.88l-1.51-1.9-1.48-1.94-1.42-2,.37.29c-1-.26-1.94-.55-2.92-.82s-2-.56-2.91-.85c-1.94-.59-3.86-1.2-5.78-1.83l.73-.12-2.92,1.94-3,1.89c-1,.61-2,1.23-3,1.82s-2,1.17-3.06,1.73c.87-.79,1.76-1.56,2.66-2.3s1.82-1.49,2.73-2.22l2.78-2.15,2.81-2.09.32-.24.41.12c2,.58,3.88,1.18,5.81,1.8,1,.31,1.92.62,2.88,1s1.91.64,2.87,1l.26.1.11.19,1.25,2.08,1.22,2.1,1.19,2.12c.38.72.77,1.44,1.13,2.17"/><path class="cls-21" d="M422.27,215.51s-7.58,17.06-7.58,52.61,8.53,55.95,25.13,67.8,35.72,6.57,45,0C501.66,324.05,518,280,513.3,248.69s-19-92.92-91-33.18"/><path class="cls-20" d="M447.4,179.71c-1.67,0-23.46,8.54-33.89,30.82s0,52.62,0,52.62,7.92-19.91,14.62-21.57,32.31,6.64,42.5-3.56,22.75-31.29,22.75-31.29-2.48,26.91-10.19,34.61,23.22,12.09,30.69,2.61,11,29.63,11,29.63,3.79-50.25-20.14-76.09-57.37-17.78-57.37-17.78"/><path class="cls-4" d="M341.86,120.41s20.15,17.7,8.86,40.85-49.31,44.16-56.16,43.57c-5.6-.49-9.37-3.75-13.05-7.69-3.19-3.41-.36-2.49,5.63-18.11s11-13.83,14.37-31.06,26.32-39,40.35-27.56"/><path class="cls-10" d="M294,196.73a13.3,13.3,0,0,1-10.12,1.33h-.05c-4.51-1.16-8.28-5.12-2.27-20.74s9.67-16.62,13.07-33.85,33.06-34.91,47.07-23.45a11.53,11.53,0,0,1,1.82,2.08c3.31,8.42,4.39,19.27-2,31.45-8.77,16.78-30.13,33-47.54,43.19"/><path class="cls-11" d="M342.85,128.27a11.41,11.41,0,0,0-9.05-8.74c-13.67-2.45-34.06,11.27-36.67,24.42-2.19,11.14-4.5,15.72-7.43,21.52s-15.7,28.45-4,31.16c6.34,1.47,13.77-6.1,18.55-9.36a168.71,168.71,0,0,0,13.56-10.22c4.32-3.61,10-7.83,13-12.63,2.17-3.44,16.42-16.82,12-36.15"/><path class="cls-8" d="M305.25,144.12c-6,9.73-5.4,21,1.29,25.11s17-.4,22.94-10.13,5.4-21-1.29-25.12-17,.41-22.94,10.14"/><path class="cls-4" d="M322.64,245.46c-1.9,7-10.12,10.58-18.36,7.91s-13.37-10.55-11.47-17.59,10.12-10.58,18.36-7.9,13.38,10.54,11.47,17.58"/><path class="cls-10" d="M321.21,244a3.49,3.49,0,1,1-3.48-3.81,3.66,3.66,0,0,1,3.48,3.81"/><path class="cls-10" d="M352.88,210.2s3.47,6.72,10.84,5.75,10.72-19.5,12.82-24.69,4.79-5.15,4.79-5.15-24.68-9.56-35.12,5.28c-6.23,8.86-1.28,14.91,6.67,18.81"/><path class="cls-4" d="M371.48,194.82c-1.49,1-5.34,3.27-7.45,3.45A154.67,154.67,0,0,1,377,187.65c-2.45,1.41-5.51,3.34-8.67,5.57-1.42-2,1.36-5.71,1.4-5.75a.25.25,0,0,0-.4-.3c-.13.17-3,4.07-1.39,6.33-1.43,1-2.86,2.09-4.27,3.19-2.52-3.52.69-9.48.72-9.54a.24.24,0,0,0-.1-.33.23.23,0,0,0-.33.08c-.15.27-3.4,6.33-.67,10.1-1.48,1.17-2.91,2.39-4.26,3.63-3.75-4-1-12-1-12.07a.25.25,0,0,0-.46-.17c-.12.36-2.85,8.37,1.11,12.57a44.16,44.16,0,0,0-4.41,4.7c-4.35-3.49-3.74-11.18-3.73-11.26a.25.25,0,0,0-.49-.06c0,.35-.64,8.07,3.92,11.7a21,21,0,0,0-1.4,2c-4.48,7.41-10,4.3-10.77,4.21a1,1,0,0,0-1.21.41c-1,1.84,4.11,2.89,6.77,2.45,4.44-.87,5.88-3.74,8.15-7.19a11.94,11.94,0,0,0,10.77-.32l0,0a.27.27,0,0,0,0-.32.24.24,0,0,0-.33-.07,11.48,11.48,0,0,1-10.22.32,33.86,33.86,0,0,1,3-3.84c3.83,1.35,9.53-2.54,9.79-2.72l0,0a.23.23,0,0,0,0-.32.23.23,0,0,0-.33-.06c-.06,0-5.54,3.78-9.14,2.72,1.37-1.52,2.85-3,4.42-4.52,2.57.23,8-3.37,8.24-3.53a.25.25,0,0,0,.06-.34.26.26,0,0,0-.34-.07"/><path class="cls-17" d="M797.72,315.72c-6.11,5.19-10.12,12.36-15.41,18.3a34.84,34.84,0,0,1-4.52,4.32c-7,5.47-18.54,9.8-22.44,16.71,0,0-7.54,11,9.68,18.36s62-33.19,56-54.56c-.81-2.9-2.26-5.93-5-7.46-6.23-3.48-13.38.15-18.28,4.29l0,0"/><path class="cls-7" d="M766,384.05a8.59,8.59,0,0,1-10.33-11.31c.28-.77,7.38-19.17,31.28-29.42,17.34-7.44,25.22-24.45,26.17-31.07a8.57,8.57,0,1,1,17,2.41c-1.68,11.86-13,34.41-36.37,44.41-16.86,7.23-21.81,19.24-22,19.76a8.46,8.46,0,0,1-5.69,5.22"/><path class="cls-11" d="M762.06,372.3c-.28-2.1-1.29-8.24,1.08-9.5,1.56-.84,1.92,2.44,3.34,3.26,3.09,1.8,5.59-1.6,6.08-4.2.43-2.3-.35-5.75.92-7.73,3.28-5.13,4.38-.24,7.35.37,4.07.81,4.63-3.63,5.33-6.44,1.4-5.68,4.19-2.59,5.17-2.26a4.63,4.63,0,0,0,4.2-.39c2.06-1.37,1.75-3.37,2.53-5.42,2.19-5.76,10.48-1.31,12-11.26.5-3.35-.41-1.83,1.84-2.72,1.58-.63,2.86-.44,4-2s.22-6.11,1.17-6.72a2.24,2.24,0,0,0-2.31-3.84,5.5,5.5,0,0,0-3.16,4.3c-.19,2,1.28,2.43-.68,3.89-1.13.83-3.41-.81-4.94,4.34-.75,2.5-.8,4.58-3.33,5.8-1.33.64-2.93.7-4.29,1.32-5.8,2.64-3.66,7.11-4.89,8.1-1.4,1.15-1.59,0-2.86-.25-3.91-.81-6.15.22-7.74,4.33-.39,1-.42,2.35-.91,3.32-1.22,2.41-2.24,1.09-4.06.81-1.43-.24-2.2-.87-3.71-.05-4.38,2.38-3.14,12.63-5.31,13.24-1.74.5-2.72-3-4.22-3.53-4.82-1.73-9.27,6.62-6.7,13.77.76,2.05,4.48,1.93,4.13-.57"/><path class="cls-9" d="M815.21,324.94C808.38,330.85,803.93,339,798,345.8a39.2,39.2,0,0,1-5.07,4.91c-7.81,6.23-20.77,11.11-25.11,19,0,0-8.4,12.54,11,21.11s69.4-37.61,62.58-62.13c-.92-3.33-2.57-6.81-5.66-8.58-7-4-15,.08-20.51,4.8l0,0"/></svg>