<svg id="Capa_1" data-name="Capa 1" xmlns="http://www.w3.org/2000/svg" xmlns:xlink="http://www.w3.org/1999/xlink" viewBox="0 0 150.68 51.83"><defs><style>.cls-1{fill:none;stroke:#0099d4;stroke-miterlimit:10;}.cls-2{fill:url(#linear-gradient);}.cls-3{fill:url(#linear-gradient-2);}.cls-4{fill:url(#linear-gradient-3);}.cls-5{fill:url(#linear-gradient-4);}.cls-6{opacity:0.95;fill:url(#linear-gradient-5);}.cls-7{opacity:0.79;fill:url(#linear-gradient-6);}.cls-8{fill:url(#linear-gradient-7);}.cls-9{opacity:0.93;fill:url(#linear-gradient-8);}.cls-10{fill:url(#linear-gradient-9);}.cls-11{font-size:33.58px;fill:#1a4581;font-family:Oswald-Regular, Oswald;}.cls-12{font-size:8.08px;fill:#009adb;font-family:Raleway-Regular, Raleway;}</style><linearGradient id="linear-gradient" x1="10.5" y1="1.07" x2="7.74" y2="56.48" gradientUnits="userSpaceOnUse"><stop offset="0.36" stop-color="#0098dc"/><stop offset="0.6" stop-color="#0f66ad"/></linearGradient><linearGradient id="linear-gradient-2" x1="27.11" y1="38.68" x2="25.14" y2="62.54" gradientUnits="userSpaceOnUse"><stop offset="0.27" stop-color="#0098dc"/><stop offset="0.61" stop-color="#0f66ad"/></linearGradient><linearGradient id="linear-gradient-3" x1="31.49" y1="24.79" x2="45.46" y2="24.79" gradientUnits="userSpaceOnUse"><stop offset="0" stop-color="#0f66ad"/><stop offset="1" stop-color="#0098dc"/></linearGradient><linearGradient id="linear-gradient-4" x1="16.12" y1="4.56" x2="30.63" y2="4.56" gradientUnits="userSpaceOnUse"><stop offset="0.03" stop-color="#224079"/><stop offset="0.75" stop-color="#2d66ad"/></linearGradient><linearGradient id="linear-gradient-5" x1="-0.69" y1="72.5" x2="-7.27" y2="80.13" gradientTransform="matrix(1.02, -0.04, -0.04, 1.07, 42.34, -73.33)" gradientUnits="userSpaceOnUse"><stop offset="0.45" stop-color="#087dc3" stop-opacity="0.72"/><stop offset="0.68" stop-color="#062a2f" stop-opacity="0.72"/></linearGradient><linearGradient id="linear-gradient-6" x1="13.67" y1="13.71" x2="-1.81" y2="11.44" gradientUnits="userSpaceOnUse"><stop offset="0.41" stop-color="#004159"/><stop offset="0.7" stop-color="#248dc4"/></linearGradient><linearGradient id="linear-gradient-7" x1="19.17" y1="51.11" x2="15.67" y2="45.35" gradientUnits="userSpaceOnUse"><stop offset="0" stop-color="#0187d0"/><stop offset="0.52" stop-color="#064668" stop-opacity="0.81"/></linearGradient><linearGradient id="linear-gradient-8" x1="25.05" y1="47.71" x2="28.5" y2="46.73" gradientUnits="userSpaceOnUse"><stop offset="0.32" stop-color="#0685ca"/><stop offset="1" stop-color="#064668"/></linearGradient><linearGradient id="linear-gradient-9" x1="41.67" y1="-4.71" x2="11.71" y2="42.39" gradientUnits="userSpaceOnUse"><stop offset="0.48" stop-color="#ea0f96"/><stop offset="0.76" stop-color="#97147a"/><stop offset="0.98" stop-color="#7f1575"/></linearGradient></defs><path class="cls-1" d="M4.57,10a7.72,7.72,0,0,1,4.74,2.43,7,7,0,0,1,1.46,3.27h0A3.33,3.33,0,0,1,11,17V18.1c.35,4.91.24,14.75-.39,27.31L15,48l1.27.73q-.11-3-.16-6l-4.7-2.86h3.05V12H11.44l4.68-2.85c0-.14,0-.28,0-.42a8,8,0,0,1,.67-3.23A11.29,11.29,0,0,1,20.33.76ZM39.24,42.82c-.07-.24-1.9.48-4.15.13a7.12,7.12,0,0,1-3.6-1.54l-5.08,3.08a8.53,8.53,0,0,0,1.4,1.64,6.5,6.5,0,0,0,1.89,1.26,7.18,7.18,0,0,0,1,.34l3.87-2.21c1.09-.63,2.14-1.31,3.26-1.87l.23-.11h0l1.21-.7ZM30.63,4c-1,1.37-2,2.74-3,4.12L32,10.7l3-4.18Z"/><path class="cls-2" d="M11,18.1c.35,4.91.24,14.75-.39,27.31l-8.58-5A4.17,4.17,0,0,1,0,36.79V15a4.16,4.16,0,0,1,1.28-3,1.51,1.51,0,0,1,.23-.21,4.51,4.51,0,0,1,.55-.39L5.12,9.64l1.32-.77L20.33.76,6.54,8.87,5.2,9.66,4.57,10a7.72,7.72,0,0,1,4.74,2.43,7.1,7.1,0,0,1,1.45,3.24h0v0a3.22,3.22,0,0,0-.71-1A3.31,3.31,0,0,0,4.41,17V34.82a3.27,3.27,0,0,0,1,2.34A3.31,3.31,0,0,0,11,34.82Z"/><path class="cls-3" d="M38,43.54,35,45.32,27,50l-2.2,1.28a4.1,4.1,0,0,1-4.12,0h0l-.07,0-1.17-.68L15,48l1.27.73q-.11-3-.16-6h0l4.46,2.7a4,4,0,0,0,4.24,0l1.4-.84.16-.11a8.84,8.84,0,0,0,1.4,1.64,6.5,6.5,0,0,0,1.89,1.26,7.18,7.18,0,0,0,1,.34l3.87-2.21.43-.25c.93-.55,1.86-1.14,2.83-1.62Z"/><path class="cls-4" d="M45.46,15V36.79A4.19,4.19,0,0,1,43.4,40.4l-4.16,2.43h0c-.07-.24-1.9.48-4.15.13a7.12,7.12,0,0,1-3.6-1.54l6.38-3.87a4.19,4.19,0,0,0,2-3.57V17.86a4.19,4.19,0,0,0-2-3.57L32,10.7l3-4.18,8.41,4.91A4.19,4.19,0,0,1,45.46,15Z"/><path class="cls-5" d="M30.63,4c-1,1.37-2,2.74-3,4.12l-2.8-1.71a4.09,4.09,0,0,0-4.24,0L16.12,9.11c0-.14,0-.28,0-.42a8,8,0,0,1,.67-3.23A11.29,11.29,0,0,1,20.33.76l.34-.2a4.05,4.05,0,0,1,4.12,0Z"/><path class="cls-6" d="M34.47,6.37,37.85,8.3l-3.93,3.55-2-1.1Z"/><path class="cls-7" d="M11,16.13a3.7,3.7,0,0,0-.19-.42,7,7,0,0,0-1.35-1.92c-2.34-2.33-5.79-2.06-7.9-2a4.51,4.51,0,0,1,.55-.39L5.12,9.64l.08,0a7.5,7.5,0,0,1,4.24,2.69A8.59,8.59,0,0,1,11,16.13Z"/><path class="cls-8" d="M16.15,42.74c0-.25,0-.31,0-.31a14.22,14.22,0,0,0,1.22,4.9,21.8,21.8,0,0,0,2.06,3.21h0L15,48l1.27.73q-.06-1.47-.09-3C16.19,44.72,16.17,43.73,16.15,42.74Z"/><path class="cls-9" d="M27,50a9.88,9.88,0,0,0-.74-5.39l.16-.11a8.84,8.84,0,0,0,1.4,1.64,6.5,6.5,0,0,0,1.89,1.26,7.18,7.18,0,0,0,1,.34l3.87-2.21.43-.25s0,0,0,0Z"/><path class="cls-10" d="M39.24,42.76a15.17,15.17,0,0,1-1.86,1.08c-.18.12-1.83,1.11-6.59,3.92a5.59,5.59,0,0,1-1.06-.29,6.33,6.33,0,0,1-2-1.29,8.08,8.08,0,0,1-1.56-1.82A11.69,11.69,0,0,1,25,41.63a35.86,35.86,0,0,1-1.14-4.45c-.19-1-.24-1.39-.34-1.94s-.2-1-.26-1.32A9.58,9.58,0,0,0,21.55,30,4.32,4.32,0,0,0,18.65,28,3.64,3.64,0,0,0,16,29c0,3.08,0,6.21,0,9.39,0,.55,0,2,.06,3.93v.38c0,1.93.1,4.31.16,6L15,48c-1.49-.85-2.95-1.71-4.4-2.57v-.06C11,38.29,11,32.79,11,30.52c0-4.38,0-9.36-.26-14.85,0-.13-.06-.32-.12-.55A8.48,8.48,0,0,0,9.31,12.4C7.76,10.44,4.78,10,4.57,10L20.33.7a11.15,11.15,0,0,0-3.52,4.7,8,8,0,0,0-.67,3.23c0,.14,0,.28,0,.42-.2,3.86-.18,9.27-.14,12.47,0,1.33,1.23.94,1.82.12L27.65,8l3-4.11,2.05-2.84a2.24,2.24,0,0,1,3.13-.5l.45.32A2.24,2.24,0,0,1,36.76,4c-.5.7-1.1,1.52-1.77,2.44l-3,4.18C30,13.39,28,16.17,26,18.92c-2.49,3.42-3.61,4.86-3.05,6,.34.71.87.34,2.4,1.6a10,10,0,0,1,2.91,4c.08.22.14.39.17.49a16.23,16.23,0,0,1,.63,3.25,29.7,29.7,0,0,0,.55,3.55,14.53,14.53,0,0,0,.48,1.56,5.24,5.24,0,0,0,.76,1.33,5.39,5.39,0,0,0,.62.64,7,7,0,0,0,3.6,1.55A10,10,0,0,0,39.24,42.76Z"/><text class="cls-11" transform="translate(51.25 34.42)">Kosante</text><text class="cls-12" transform="translate(52.64 45.54)">NUTRICIÓN INTELIGENTE</text></svg>