<svg id="Capa_1" data-name="Capa 1" xmlns="http://www.w3.org/2000/svg" xmlns:xlink="http://www.w3.org/1999/xlink" viewBox="0 0 133.59 152.31"><defs><style>.cls-1{fill:none;stroke:#0099d4;stroke-miterlimit:10;}.cls-2{fill:url(#linear-gradient);}.cls-3{fill:url(#linear-gradient-2);}.cls-4{fill:url(#linear-gradient-3);}.cls-5{fill:url(#linear-gradient-4);}.cls-6{opacity:0.95;fill:url(#linear-gradient-5);}.cls-7{opacity:0.79;fill:url(#linear-gradient-6);}.cls-8{fill:url(#linear-gradient-7);}.cls-9{opacity:0.93;fill:url(#linear-gradient-8);}.cls-10{fill:url(#linear-gradient-9);}</style><linearGradient id="linear-gradient" x1="30.86" y1="3.16" x2="22.75" y2="165.98" gradientUnits="userSpaceOnUse"><stop offset="0.36" stop-color="#0098dc"/><stop offset="0.6" stop-color="#0f66ad"/></linearGradient><linearGradient id="linear-gradient-2" x1="79.67" y1="113.67" x2="73.88" y2="183.78" gradientUnits="userSpaceOnUse"><stop offset="0.27" stop-color="#0098dc"/><stop offset="0.61" stop-color="#0f66ad"/></linearGradient><linearGradient id="linear-gradient-3" x1="92.55" y1="72.84" x2="133.59" y2="72.84" gradientUnits="userSpaceOnUse"><stop offset="0" stop-color="#0f66ad"/><stop offset="1" stop-color="#0098dc"/></linearGradient><linearGradient id="linear-gradient-4" x1="47.37" y1="13.39" x2="90.01" y2="13.39" gradientUnits="userSpaceOnUse"><stop offset="0.03" stop-color="#224079"/><stop offset="0.75" stop-color="#2d66ad"/></linearGradient><linearGradient id="linear-gradient-5" x1="53.21" y1="117.37" x2="33.89" y2="139.78" gradientTransform="matrix(1.02, -0.04, -0.04, 1.07, 63.93, -110.73)" gradientUnits="userSpaceOnUse"><stop offset="0.45" stop-color="#087dc3" stop-opacity="0.72"/><stop offset="0.68" stop-color="#062a2f" stop-opacity="0.72"/></linearGradient><linearGradient id="linear-gradient-6" x1="40.17" y1="40.3" x2="-5.33" y2="33.63" gradientUnits="userSpaceOnUse"><stop offset="0.41" stop-color="#004159"/><stop offset="0.7" stop-color="#248dc4"/></linearGradient><linearGradient id="linear-gradient-7" x1="56.35" y1="150.2" x2="46.05" y2="133.27" gradientUnits="userSpaceOnUse"><stop offset="0" stop-color="#0187d0"/><stop offset="0.52" stop-color="#064668" stop-opacity="0.81"/></linearGradient><linearGradient id="linear-gradient-8" x1="73.61" y1="140.22" x2="83.75" y2="137.32" gradientUnits="userSpaceOnUse"><stop offset="0.32" stop-color="#0685ca"/><stop offset="1" stop-color="#064668"/></linearGradient><linearGradient id="linear-gradient-9" x1="122.47" y1="-13.85" x2="34.42" y2="124.59" gradientUnits="userSpaceOnUse"><stop offset="0.48" stop-color="#ea0f96"/><stop offset="0.76" stop-color="#97147a"/><stop offset="0.98" stop-color="#7f1575"/></linearGradient></defs><path class="cls-1" d="M13.43,29.48c3.81.61,9.79,2.22,13.94,7.15a20.6,20.6,0,0,1,4.27,9.6h0a9.83,9.83,0,0,1,.78,3.84v3.11c1,14.45.7,43.37-1.16,80.26L44.16,141l3.73,2.13q-.27-8.69-.46-17.54l-13.82-8.39h9v-82h-9l13.76-8.36q0-.63.06-1.23c.34-6.12,1.23-7.54,2-9.5A33.31,33.31,0,0,1,59.73,2.23Zm101.88,96.37c-.19-.7-5.58,1.41-12.17.39a21,21,0,0,1-10.59-4.55l-14.93,9.07a26.38,26.38,0,0,0,4.1,4.82,20.12,20.12,0,0,0,5.55,3.7,19,19,0,0,0,2.83,1q5.7-3.24,11.38-6.5c3.19-1.82,6.29-3.84,9.59-5.48l.68-.33h0l3.55-2.08ZM90,11.67l-8.75,12.1,12.66,7.68,8.92-12.29Z"/><path class="cls-2" d="M32.42,53.18c1,14.45.7,43.37-1.16,80.26L6.05,118.72a12.28,12.28,0,0,1-6-10.6V44.2a12.29,12.29,0,0,1,3.75-8.86c.22-.21.44-.41.68-.6A10.26,10.26,0,0,1,6.05,33.6l9-5.26,3.87-2.27L59.73,2.23,19.23,26.06l-4,2.34-1.84,1.08c3.81.6,9.79,2.22,13.94,7.15a20.46,20.46,0,0,1,4.25,9.51v0s0,.05,0,.07A9.73,9.73,0,0,0,13,50.07v52.27a9.73,9.73,0,1,0,19.45,0Z"/><path class="cls-3" d="M111.75,128l-9,5.24L79.31,146.9l-6.47,3.78a12,12,0,0,1-12.09,0l-.07,0-.21-.13-3.41-2L44.16,141l3.73,2.13q-.27-8.69-.46-17.54l0,0,13.09,8a12,12,0,0,0,12.45,0l4.11-2.49.49-.3a26.38,26.38,0,0,0,4.1,4.82,20.12,20.12,0,0,0,5.55,3.7,19,19,0,0,0,2.83,1q5.7-3.24,11.38-6.5l1.25-.72c2.76-1.63,5.47-3.34,8.34-4.76Z"/><path class="cls-4" d="M133.59,44.2v63.92a12.27,12.27,0,0,1-6,10.6l-12.24,7.14h0c-.19-.7-5.58,1.41-12.17.39a21,21,0,0,1-10.59-4.55l18.74-11.38a12.26,12.26,0,0,0,5.87-10.49V52.5A12.29,12.29,0,0,0,111.29,42L93.92,31.45l8.92-12.29L127.55,33.6A12.26,12.26,0,0,1,133.59,44.2Z"/><path class="cls-5" d="M90,11.67l-8.75,12.1-8.24-5a12,12,0,0,0-12.45,0l-13.2,8q0-.63.06-1.23c.34-6.12,1.23-7.54,2-9.5A33.31,33.31,0,0,1,59.73,2.23l1-.59a12,12,0,0,1,12.09,0Z"/><path class="cls-6" d="M101.31,18.71l9.92,5.69L99.68,34.81,93.87,31.6Z"/><path class="cls-7" d="M32.19,47.4c-.16-.37-.34-.79-.56-1.24a21,21,0,0,0-4-5.64c-6.88-6.85-17-6-23.22-5.78A10.26,10.26,0,0,1,6.05,33.6l9-5.26.22.06a22,22,0,0,1,12.46,7.89A25.11,25.11,0,0,1,32.19,47.4Z"/><path class="cls-8" d="M47.48,125.6c-.09-.74-.08-.89-.06-.89S47.53,132,51,139.09a61.94,61.94,0,0,0,6.07,9.43h0L44.16,141l3.73,2.13q-.15-4.32-.25-8.72C47.57,131.43,47.51,128.5,47.48,125.6Z"/><path class="cls-9" d="M79.31,146.9c1.22-5.3-.41-10.9-2.18-15.84l.49-.3a26.38,26.38,0,0,0,4.1,4.82,20.12,20.12,0,0,0,5.55,3.7,19,19,0,0,0,2.83,1q5.7-3.24,11.38-6.5l1.25-.72c0,.05,0,.1,0,.15Z"/><path class="cls-10" d="M115.31,125.67c.08.38-4.73,2.66-5.46,3.16-.51.36-5.38,3.27-19.36,11.54a17.52,17.52,0,0,1-3.11-.86,18.77,18.77,0,0,1-5.93-3.79,24.74,24.74,0,0,1-4.57-5.34c-1.44-2.29-2.09-4.21-3.39-8a105.84,105.84,0,0,1-3.35-13.07c-.55-3-.7-4.1-1-5.72-.24-1.32-.59-3.06-.77-3.87a28,28,0,0,0-5-11.46c-2.06-2.61-4.53-5.73-8.53-6.07-3.83-.32-6.8,2.13-7.72,3q-.06,13.59.12,27.58c0,1.63.08,6,.19,11.56,0,.19,0,.8,0,1.13.11,5.67.31,12.67.46,17.73L44.16,141q-6.55-3.76-12.91-7.57v-.15c1-20.73,1.13-36.89,1.16-43.58.06-12.86-.13-27.49-.78-43.63-.07-.38-.18-.94-.35-1.6a24.86,24.86,0,0,0-3.92-8C22.81,30.69,14,29.38,13.43,29.29L59.73,2A33.31,33.31,0,0,0,49.4,15.86c-.74,2-1.63,3.38-2,9.5,0,.4,0,.82-.06,1.23-.57,11.35-.51,27.24-.41,36.66,0,3.89,3.61,2.76,5.36.35l28.94-40L90,11.48l6-8.34a6.59,6.59,0,0,1,9.19-1.47l1.33,1a6.6,6.6,0,0,1,1.47,9.2L102.84,19c-.19.25,0,0-8.92,12.29C88.06,39.34,82.33,47.52,76.46,55.6c-7.31,10-10.59,14.29-9,17.61,1,2.08,2.58,1,7.07,4.68a29.58,29.58,0,0,1,8.55,11.79c.24.65.4,1.15.5,1.46a49.9,49.9,0,0,1,1.86,9.55c1,6.7.73,7.29,1.6,10.43a42.15,42.15,0,0,0,1.42,4.57,14.69,14.69,0,0,0,4.06,5.81c3.66,3.22,7.9,4.06,10.59,4.55A29.71,29.71,0,0,0,115.31,125.67Z"/></svg>