<svg xmlns="http://www.w3.org/2000/svg" viewBox="0 0 670.5 593.88"><defs><style>.cls-1{isolation:isolate;}.cls-14,.cls-2,.cls-8{fill:#daeef7;}.cls-2{opacity:0.5;}.cls-3{fill:#fee5bf;}.cls-29,.cls-4{fill:#ff5b7e;}.cls-5{fill:#feb546;}.cls-6{fill:#f4a640;}.cls-7{fill:#e03268;}.cls-9{fill:#55769f;}.cls-10{fill:#02ccc0;}.cls-11{fill:#06bfad;}.cls-12{fill:#07085b;}.cls-13{fill:#333;}.cls-14,.cls-29{opacity:0.3;}.cls-15{fill:#fff;}.cls-16{fill:#f0e5cc;}.cls-16,.cls-17,.cls-18,.cls-20,.cls-22,.cls-23,.cls-24,.cls-25{mix-blend-mode:multiply;}.cls-17{fill:#f0e6da;}.cls-18{fill:#c4c4c4;}.cls-19{fill:#9c6228;}.cls-20{fill:#e6e6e6;}.cls-21{fill:#c27a31;}.cls-22{fill:#bdbdbd;}.cls-23{fill:#cce5f0;}.cls-24{fill:#f0ccda;}.cls-26{fill:#a8a8a8;}.cls-27{fill:#ffc0bb;}.cls-28{fill:#fc8d84;}.cls-30{fill:#90c5de;}.cls-31{fill:#ff7895;}</style></defs><g class="cls-1"><g id="Capa_1" data-name="Capa 1"><path class="cls-2" d="M41.65,144.94c-16,8.84,2.12,27.74,7.22,32.61a127.51,127.51,0,0,0-6.63,17.65c-3.33-8.17-.54-16.81-4.19-21.12-4.09-4.83-11.63-6.77-12.39,5.59-.61,9.79,11.09,15.66,16,17.68A109.08,109.08,0,0,0,37.85,221c-5.2-8.71-3-19-7.73-23.37-5.14-4.79-13.7-5.94-12.93,7.77.63,11.34,15.47,16.24,20.6,17.6a60.22,60.22,0,0,0,.39,9.11,184.7,184.7,0,0,0,3.51,18.93c-4.76-7.55-4.6-16.56-9.39-19.91-5.76-4-14.4-4-11.72,9.51,2.12,10.66,16.3,13.66,22.13,14.44a171.52,171.52,0,0,0,12.43,32.95c-6.62-4.92-12.44-16.86-20.09-19.17-5-1.52-8,.82-9.6,3.07a7.82,7.82,0,0,0-1.17,6.62c3.49,12.9,25.23,11.88,31.77,11.27A161.7,161.7,0,0,0,75,318.62c-3.45-2.51-8.64-6.33-11.25-8.44-4.1-3.32-11.39-5.64-16.12-3.82l-.57.24A7.94,7.94,0,0,0,42.89,316c3.91,14.56,29.06,7.23,34.44,5.48l.13.15c16,18.49,30.49,26.65,31.1,27l1.25-2.25c-.14-.08-13.9-7.86-29.1-24.94,10.91-21.64,3-34.74-3.1-34.8-6.29,0-13,6.74-7,15.76A68.8,68.8,0,0,1,78,318.25,159.08,159.08,0,0,1,58.53,289c23.27-22.4,8.12-35.51.74-32.66s-7.91,8.83-4.4,17.22a38.51,38.51,0,0,1,2.85,13.87A168.9,168.9,0,0,1,45.4,255.18c5.69-.86,20.1-4.08,22-14.9,2.42-13.52-6.22-13.42-11.9-9.28-5.22,3.8-4.27,14.36-10.61,22.41a181.08,181.08,0,0,1-4.2-21.61A75.34,75.34,0,0,1,41,214.49c5.81-.14,20.39-1.55,23.67-12,4.11-13.11-4.48-14.1-10.63-10.71-5.5,3-6,13.09-12.74,20.24A118.57,118.57,0,0,1,51,179c6-.2,20.11-1.76,23.32-12,4.11-13.11-4.48-14.09-10.63-10.71-5.58,3.07-6,13.38-13,20.55l-.24-.12c.63-3.65,2-11.41,2.83-15.09,1.13-4.91-.06-12-3.8-15.14A8.2,8.2,0,0,0,41.65,144.94Z"/><path class="cls-3" d="M179.1,81.8c-23.69.21-14.66,32.92-11.85,41.61a165.13,165.13,0,0,0-18.42,16c1.24-11.37,9.73-19.5,8.23-26.66-1.69-8-9.09-14.87-17.57-1.26-6.71,10.79,3,24.69,7.33,30a141.11,141.11,0,0,0-18.9,24.66c-.56-13.13,8.23-23.51,5.58-31.39-2.9-8.63-12-15.21-19.53.89-6.26,13.32,7.64,28,12.65,32.74a76.29,76.29,0,0,0-5.16,10.63,238.19,238.19,0,0,0-7.65,23.73c-.78-11.54,5-21.7,1.55-28.48-4.08-8.13-14-13.38-19.21,3.63C92,191.39,106.32,203.54,112.48,208a221.56,221.56,0,0,0-6.11,45.2c-4.53-9.69-3.81-26.88-11.1-34.22-4.79-4.82-9.61-4-12.83-2.41A10.11,10.11,0,0,0,77,223.42c-4,16.86,21.44,29.08,29.27,32.41a210.74,210.74,0,0,0,3.84,44.42c-2.38-5-5.94-12.54-7.62-16.54-2.63-6.32-9.51-13.44-16-14.29l-.79-.08a10.3,10.3,0,0,0-10.47,8.14c-4.51,19,28.67,26.12,35.88,27.44l.06.26c6.88,30.93,18.34,49.13,18.83,49.89l2.81-1.79c-.11-.17-11-17.52-17.82-46.34,25.76-17.94,24.79-37.75,17.89-41.56-7.13-3.94-19-.34-17.68,13.64.76,8.1-.33,16.79-1.37,22.67a206.55,206.55,0,0,1-4.21-45.27c40.32-11.21,31.13-35.48,20.95-36.77s-14.45,5.19-15.61,16.92a49.7,49.7,0,0,1-5.29,17.55,218.88,218.88,0,0,1,5.83-44.38c7,2.53,25.43,7.73,34.3-3.41,11.09-13.92,1.17-19.12-7.85-17.9-8.29,1.12-13.71,13.74-25.89,19a236.67,236.67,0,0,1,8.52-27.22c0-.15,3.08-8.22,11-19.56,6.71,3.42,24.2,10.79,34.36.91,12.75-12.41,3.58-18.82-5.52-18.75-8.13.06-14.93,11.21-27,15.23a153.73,153.73,0,0,1,31.44-31.67c7,3.49,24,10.38,33.95.7,12.76-12.41,3.58-18.82-5.52-18.75-8.24.06-15.11,11.53-27.48,15.4l-.21-.28c3-3.78,9.3-11.78,12.53-15.45,4.3-4.9,7.31-13.73,5-19.6A10.66,10.66,0,0,0,179.1,81.8Z"/><path class="cls-4" d="M92.41,269.7c-5.85-1.05-11,.37-15,4.11-5.48,5.21-8.51,14.9-9,28.78-.13,3.53-.07,6.88.06,9.73-1.64-2.36-3.63-5.08-5.89-7.85C53.83,293.72,45.55,287.85,38,287c-5.4-.59-10.38,1.41-14.4,5.79C16.3,300.79,15,309.61,20,317c4,5.83,11.75,10.18,21.32,11.93a55.42,55.42,0,0,0,27.3-2.05c.77-.26,1.53-.54,2.29-.83l1.2-.47,2.71-.78c.78-.22,1.55-.46,2.32-.72a55.23,55.23,0,0,0,23-14.89c6.56-7.18,10.11-15.34,9.76-22.39C109.46,277.86,103.08,271.63,92.41,269.7ZM27.43,312c-2.62-3.84-1.68-8.25,2.79-13.12A9.24,9.24,0,0,1,34,296.2a6.8,6.8,0,0,1,3-.29c5,.54,11.55,5.56,18.57,14.13,2.77,3.39,5.14,6.75,6.86,9.35C47.54,323.18,32.31,319.11,27.43,312ZM101,287.27c.44,8.63-9.22,21.09-23.41,27.1-.2-3.1-.34-7.22-.19-11.59.41-11.07,2.62-19.06,6.23-22.49a6.84,6.84,0,0,1,2.58-1.59,9.14,9.14,0,0,1,4.63-.19C97.33,279.68,100.74,282.63,101,287.27Z"/><path class="cls-5" d="M168.1,421.15l-109,36.71a11.22,11.22,0,0,1-14.2-7L12.56,354.7a11.22,11.22,0,0,1,7-14.2l109-36.71a11.22,11.22,0,0,1,14.2,7L175.15,407A11.21,11.21,0,0,1,168.1,421.15Z"/><path class="cls-6" d="M159,358.9,28.75,402.76l-15.17-45a14.42,14.42,0,0,1,9.06-18.26l102.89-34.66a14.41,14.41,0,0,1,18.26,9.05Z"/><path class="cls-5" d="M156.22,343.3,21.49,388.69A7.4,7.4,0,0,1,12.12,384l-10-29.83a7.4,7.4,0,0,1,4.65-9.37l134.73-45.38a7.39,7.39,0,0,1,9.37,4.64l10.05,29.83A7.39,7.39,0,0,1,156.22,343.3Z"/><rect class="cls-4" x="78.98" y="318.64" width="31.32" height="123.84" transform="translate(-116.54 50.13) rotate(-18.62)"/><rect class="cls-7" x="76.49" y="365.32" width="31.32" height="15.65" transform="translate(-114.3 48.94) rotate(-18.62)"/><rect class="cls-5" x="454.44" y="228.44" width="141.1" height="171.18" transform="translate(140.36 -161.66) rotate(20.16)"/><rect class="cls-6" x="456.6" y="216.28" width="70.55" height="171.18" transform="translate(134.14 -151) rotate(20.16)"/><path class="cls-8" d="M507.84,232.26h0a2.72,2.72,0,0,1-1.36-3.7,111.11,111.11,0,0,1,16-23.86c14.91-16.66,31.8-22.61,48.84-17.2a34.28,34.28,0,0,1,20.9,17.44c10,19.38,3.68,46.88,1.27,55.61a2.72,2.72,0,0,1-3.47,1.87h0a2.74,2.74,0,0,1-1.79-3.31c2.2-8.11,8.14-34.22-.86-51.69a29,29,0,0,0-17.68-14.73c-15.06-4.78-29.57.49-43.13,15.65A106.64,106.64,0,0,0,511.37,231,2.73,2.73,0,0,1,507.84,232.26Z"/><path class="cls-9" d="M79.64,373.15c14.26,2.35,25.52,7.57,34.41,14.46-1.66,5.91-3.51,13-3.51,13l9.32-7.93C150.41,422.32,147,473.08,147,473.08c-31.44-4.65-49.71-16.41-60-30.3,2.48-3.63,6.22-9,6.22-9l-9.32,4.38a63.1,63.1,0,0,1-8-22.18c4.85-2.24,10.3-4.92,10.3-4.92L75,408.84A94.25,94.25,0,0,1,79.64,373.15Z"/><path class="cls-10" d="M3.74,402c23.35-3.26,43.43-.6,60.61,5.81.28,10,.85,21.92.85,21.92l10.66-16.88c62,31.35,81.32,112.07,81.32,112.07-51.22,8-85.37-1.41-108.15-18.05,2.09-6.86,5.31-17,5.31-17L42,501.15a102.58,102.58,0,0,1-23.29-30.64c6.47-5.85,13.66-12.67,13.66-12.67l-18.46,2A153.76,153.76,0,0,1,3.74,402Z"/><path class="cls-11" d="M49,506.84c2.09-6.86,5.31-17,5.31-17L42,501.15a102.58,102.58,0,0,1-23.29-30.64c6.47-5.85,13.66-12.67,13.66-12.67l-18.46,2A153.76,153.76,0,0,1,3.74,402c75.91,30.22,153.44,122.92,153.44,122.92C106,532.92,71.81,523.48,49,506.84Z"/><path class="cls-4" d="M0,506.85c10.75-11.37,22.26-18.31,33.82-22.11,4.29,5.07,9.52,11,9.52,11l-1.46-13.17C87,473.14,130.48,507,130.48,507c-23.22,25.4-44.84,34.66-63.54,35.48-1.76-4.42-4.3-11-4.3-11l-1.72,11a68,68,0,0,1-24.77-6.23C37.08,530.47,38,524,38,524l-8.75,8.66A102.05,102.05,0,0,1,0,506.85Z"/><path class="cls-7" d="M66.94,542.43c-1.76-4.42-4.3-11-4.3-11l-1.72,11a68,68,0,0,1-24.77-6.23C37.08,530.47,38,524,38,524l-8.75,8.66A102.05,102.05,0,0,1,0,506.85c51.87-15.8,130.48.1,130.48.1C107.26,532.35,85.64,541.61,66.94,542.43Z"/><path class="cls-12" d="M87,442.78c2.48-3.63,6.22-9,6.22-9l-9.32,4.38a63.1,63.1,0,0,1-8-22.18c4.85-2.24,10.3-4.92,10.3-4.92L75,408.84a94.25,94.25,0,0,1,4.62-35.69c38.9,31.54,67.36,99.93,67.36,99.93C115.56,468.43,97.29,456.67,87,442.78Z"/><path class="cls-4" d="M520.42,382.93l75.7-104.11a8.67,8.67,0,0,1,12.13-1.91l58.67,42.66a8.68,8.68,0,0,1,1.92,12.13l-75.7,104.11A8.68,8.68,0,0,1,581,437.72l-58.66-42.66A8.67,8.67,0,0,1,520.42,382.93Z"/><rect class="cls-13" x="532.63" y="353.9" width="146.09" height="22.9" transform="translate(1257.37 90.35) rotate(126.02)"/><path class="cls-13" d="M586.24,331.26l29.41-40.44a1.15,1.15,0,0,1,1.61-.26l.27.2a1.15,1.15,0,0,1,.26,1.61l-29.41,40.45a1.16,1.16,0,0,1-1.61.25l-.28-.2A1.15,1.15,0,0,1,586.24,331.26Z"/><rect class="cls-13" x="577.54" y="303.12" width="43.56" height="2.65" rx="1.15" transform="matrix(0.59, -0.81, 0.81, 0.59, 0.63, 610.12)"/><rect class="cls-13" x="565.32" y="302.83" width="52.31" height="2.65" rx="1.15" transform="translate(-2.37 603.66) rotate(-53.98)"/><rect class="cls-13" x="532.96" y="370.09" width="25.85" height="15.67" rx="5.06" transform="translate(-80.81 597.18) rotate(-53.98)"/><path class="cls-9" d="M561.84,339.41c-12.17,4.86-21.12,11.67-27.65,19.49,2.62,4.91,5.62,10.81,5.62,10.81L530,364.5c-21.28,32.2-8.39,76.47-8.39,76.47,26.93-10.22,40.81-24.18,47.22-38.48-2.89-2.73-7.25-6.76-7.25-6.76l9.1,2.07a57,57,0,0,0,2.8-21.2c-4.73-1-10.08-2.35-10.08-2.35l9.45-4.14A85.45,85.45,0,0,0,561.84,339.41Z"/><path class="cls-12" d="M568.85,402.49c-2.89-2.73-7.25-6.76-7.25-6.76l9.1,2.07a57,57,0,0,0,2.8-21.2c-4.73-1-10.08-2.35-10.08-2.35l9.45-4.14a85.45,85.45,0,0,0-11-30.7C533.53,374.89,521.63,441,521.63,441,548.56,430.75,562.44,416.79,568.85,402.49Z"/><path class="cls-10" d="M666.3,367.48c-27.28-4.13-50.8-1.28-71,6-.46,11.71-1.28,25.63-1.28,25.63L581.76,379.2c-72.94,35.85-96.66,130-96.66,130,59.82,10.09,99.92-.5,126.79-19.65-2.35-8.06-6-20-6-20L620.23,483a120.12,120.12,0,0,0,27.66-35.53c-7.48-6.94-15.8-15-15.8-15L653.65,435A179.77,179.77,0,0,0,666.3,367.48Z"/><path class="cls-11" d="M611.89,489.58c-2.35-8.06-6-20-6-20L620.23,483a120.12,120.12,0,0,0,27.66-35.53c-7.48-6.94-15.8-15-15.8-15L653.65,435a179.77,179.77,0,0,0,12.65-67.52c-89.22,34.34-181.2,141.75-181.2,141.75C544.92,519.32,585,508.73,611.89,489.58Z"/><path class="cls-5" d="M646.75,493.32c-14.42-11.28-28.94-17.31-43-19.69-4.09,6.61-9.11,14.39-9.11,14.39l-.59-15.49c-53.86-3.06-98.28,43.64-98.28,43.64,31.29,25.34,57.92,32.3,79.7,30,1.26-5.43,3.06-13.52,3.06-13.52l3.9,12.44A79.66,79.66,0,0,0,610,533.56c-2.07-6.45-4.25-13.83-4.25-13.83l11.64,8.5A119.22,119.22,0,0,0,646.75,493.32Z"/><path class="cls-6" d="M575.49,546.16c1.26-5.43,3.06-13.52,3.06-13.52l3.9,12.44A79.66,79.66,0,0,0,610,533.56c-2.07-6.45-4.25-13.83-4.25-13.83l11.64,8.5a119.22,119.22,0,0,0,29.33-34.91c-62.77-9.24-151,22.85-151,22.85C527.08,541.51,553.71,548.47,575.49,546.16Z"/><path class="cls-5" d="M461,40.44s-.53,5.21-4.64,5.57c4.11.36,4.64,5.57,4.64,5.57s.53-5.21,4.64-5.57C461.48,45.65,461,40.44,461,40.44Z"/><path class="cls-5" d="M372.17,209.39s-.89,8.78-7.82,9.39c6.93.6,7.82,9.39,7.82,9.39s.89-8.79,7.82-9.39C373.06,218.17,372.17,209.39,372.17,209.39Z"/><path class="cls-12" d="M609.9,109.36s-.9,8.86-7.89,9.47c7,.62,7.89,9.47,7.89,9.47s.9-8.85,7.89-9.47C610.8,118.22,609.9,109.36,609.9,109.36Z"/><path class="cls-10" d="M507.87,141.79s-1,9.57-8.52,10.23c7.54.66,8.52,10.23,8.52,10.23s1-9.57,8.52-10.23C508.84,151.36,507.87,141.79,507.87,141.79Z"/><path class="cls-10" d="M291.06,41.35s-1,9.57-8.52,10.23c7.55.67,8.52,10.23,8.52,10.23s1-9.56,8.52-10.23C292,50.92,291.06,41.35,291.06,41.35Z"/><path class="cls-12" d="M391,0s-1,9.57-8.52,10.23C390,10.89,391,20.46,391,20.46s1-9.57,8.52-10.23C391.93,9.57,391,0,391,0Z"/><path class="cls-4" d="M551.92,12s-1,9.56-8.52,10.23c7.55.66,8.52,10.22,8.52,10.22s1-9.56,8.52-10.22C552.89,21.58,551.92,12,551.92,12Z"/><path class="cls-4" d="M282,144.54s-.55,5.46-4.86,5.84c4.31.38,4.86,5.84,4.86,5.84s.56-5.46,4.87-5.84C282.56,150,282,144.54,282,144.54Z"/><rect class="cls-13" x="136.63" y="258.28" width="388.36" height="283.94" rx="35.88"/><path class="cls-8" d="M158.14,269.36H497.51a0,0,0,0,1,0,0V531.13a0,0,0,0,1,0,0H158.14A11.44,11.44,0,0,1,146.7,519.7V280.8A11.44,11.44,0,0,1,158.14,269.36Z"/><path class="cls-14" d="M521.45,400.25a9.85,9.85,0,1,1-9.84-9.85A9.84,9.84,0,0,1,521.45,400.25Z"/><rect class="cls-15" x="160.9" y="304.07" width="320.12" height="222.58"/><path class="cls-8" d="M514.54,404.35h-5.87a1.17,1.17,0,0,1-1.17-1.17v-5.87a1.17,1.17,0,0,1,1.17-1.16h5.87a1.16,1.16,0,0,1,1.17,1.16v5.87A1.17,1.17,0,0,1,514.54,404.35Zm-5.87-7.89a.85.85,0,0,0-.85.85v5.87a.85.85,0,0,0,.85.85h5.87a.85.85,0,0,0,.85-.85v-5.87a.85.85,0,0,0-.85-.85Z"/><path class="cls-4" d="M481,310.18V293.69a10.23,10.23,0,0,0-10.22-10.23H171.13a10.23,10.23,0,0,0-10.23,10.23v16.49Z"/><rect class="cls-15" x="329.49" y="290.33" width="137.8" height="12.98" rx="6.49"/><path class="cls-15" d="M187.35,296.82a5.64,5.64,0,1,1-5.64-5.64A5.63,5.63,0,0,1,187.35,296.82Z"/><path class="cls-15" d="M212,296.82a5.64,5.64,0,1,1-5.64-5.64A5.64,5.64,0,0,1,212,296.82Z"/><path class="cls-15" d="M236.61,296.82a5.64,5.64,0,1,1-5.64-5.64A5.64,5.64,0,0,1,236.61,296.82Z"/><rect class="cls-8" x="175.73" y="330.19" width="81.01" height="144.11" rx="22.65"/><path class="cls-5" d="M238,394.44c3.9,14.17-9.6,29.89-22.25,29.75-14.38-.17-16.86,1.75-18.38.41-2.18-1.93.92-.47-2.51-13.32C189.61,391.72,205.7,379,221,380.35c10.55,1,12.26-2.28,14.36-.28C236.89,381.5,234.73,382.67,238,394.44Z"/><path class="cls-16" d="M215.72,424.19c12.65.14,26.15-15.58,22.25-29.75-3.24-11.77-1.08-12.94-2.57-14.37L197.34,424.6C198.86,425.94,201.34,424,215.72,424.19Z"/><rect class="cls-8" x="280.46" y="330.19" width="81.01" height="144.11" rx="22.65"/><path class="cls-5" d="M322.49,384.2c3.46.44,11.05-1.71,15.71,2.14,4.06,3.35,5.84,10.46,3.19,17.09-3,7.44-7.78,11.47-12.12,12.66-3.54,1-10.67,1-14-.63-3.54-1.75-11.24-8.28-11.91-17.61s7.19-14,10.86-14.21A34.74,34.74,0,0,1,322.49,384.2Z"/><path class="cls-17" d="M338.2,386.34c-4.23-3.49-10.88-2-14.66-2.08v32.51a25.05,25.05,0,0,0,5.73-.68c4.34-1.19,9.15-5.22,12.12-12.66C344,396.8,342.26,389.69,338.2,386.34Z"/><path class="cls-18" d="M317.77,386.42a6.18,6.18,0,0,0,5.52-.14c2.61-1.17,2.53-1.46,1.83-1.46-1.5,0-3.16,1.21-4.08,1.35A7.85,7.85,0,0,1,317.77,386.42Z"/><path class="cls-19" d="M324.24,379.14c-.49.1-1.5,2.32-1.71,4.17-.3,2.74-.15,3.31-.3,3.36-.33.11-.47.11-.44.12s0-2.36.19-4.55a10.27,10.27,0,0,1,1.54-4.75C323.85,377.19,324.49,379.08,324.24,379.14Z"/><path class="cls-20" d="M323.83,379.26a8.63,8.63,0,0,0-1.22,2.67c-.32,1.14-.45,2.55-.78,3.33,0,.9,0,1.53,0,1.53s.11,0,.44-.12c.15-.05,0-.62.3-3.36.21-1.85,1.22-4.07,1.71-4.17.14,0,0-.59-.18-1.06l-.35-.05C323.65,378.66,324,379.1,323.83,379.26Z"/><path class="cls-21" d="M323.53,377.49c-.15.17.42,1.64.71,1.65S323.87,377.06,323.53,377.49Z"/><path class="cls-22" d="M324.61,416.25a11.49,11.49,0,0,0-2.92-.16c-1,.11-1.74-.39-.93-.61A5.55,5.55,0,0,1,324.61,416.25Z"/><path class="cls-10" d="M335.19,393.37c3.32.42,10.57-1.63,15,2.05,3.88,3.2,5.58,10,3,16.34-2.84,7.11-7.43,11-11.59,12.1-3.38.93-10.2,1-13.41-.6-3.39-1.67-10.75-7.92-11.39-16.84s6.88-13.35,10.38-13.59A33.81,33.81,0,0,1,335.19,393.37Z"/><path class="cls-23" d="M353.27,411.76c2.53-6.34.83-13.14-3-16.34-4.26-3.52-11.08-1.8-14.56-2v31.1a24,24,0,0,0,6-.65C345.84,422.73,350.43,418.87,353.27,411.76Z"/><path class="cls-18" d="M330.68,395.5a6,6,0,0,0,5.28-.14c2.5-1.12,2.42-1.4,1.76-1.4-1.44,0-3,1.16-3.91,1.29A7.67,7.67,0,0,1,330.68,395.5Z"/><path class="cls-19" d="M336.87,388.53c-.47.09-1.44,2.22-1.63,4-.29,2.62-.15,3.17-.29,3.22-.31.1-.45.1-.42.11s.05-2.26.18-4.35a9.83,9.83,0,0,1,1.48-4.54C336.5,386.67,337.11,388.48,336.87,388.53Z"/><path class="cls-20" d="M336.48,388.65a8.14,8.14,0,0,0-1.17,2.55c-.31,1.09-.43,2.44-.74,3.18,0,.87,0,1.47,0,1.47s.11,0,.42-.11c.14-.05,0-.6.29-3.22.19-1.77,1.16-3.9,1.63-4,.13,0,0-.56-.17-1l-.33,0C336.31,388.07,336.63,388.49,336.48,388.65Z"/><path class="cls-21" d="M336.19,387c-.14.16.41,1.57.68,1.57S336.52,386.54,336.19,387Z"/><path class="cls-22" d="M337.22,424a11,11,0,0,0-2.79-.16c-.92.1-1.66-.37-.89-.58A5.28,5.28,0,0,1,337.22,424Z"/><path class="cls-4" d="M306.34,395c3.41.44,10.87-1.68,15.46,2.11,4,3.29,5.74,10.29,3.13,16.81-2.92,7.31-7.65,11.28-11.92,12.45-3.48.95-10.49,1-13.8-.62-3.48-1.72-11.06-8.15-11.71-17.32s7.07-13.74,10.67-14A34.7,34.7,0,0,1,306.34,395Z"/><path class="cls-24" d="M321.8,397.12c-4.39-3.62-11.4-1.85-15-2.07v32a24.83,24.83,0,0,0,6.2-.67c4.27-1.17,9-5.14,11.92-12.45C327.54,407.41,325.79,400.41,321.8,397.12Z"/><path class="cls-18" d="M301.69,397.2a6.13,6.13,0,0,0,5.44-.15c2.56-1.14,2.48-1.43,1.8-1.43-1.47,0-3.11,1.19-4,1.32A7.79,7.79,0,0,1,301.69,397.2Z"/><path class="cls-19" d="M308.06,390c-.48.1-1.48,2.29-1.68,4.1-.29,2.7-.15,3.26-.3,3.31-.32.11-.46.11-.43.12s.05-2.32.18-4.48a10.19,10.19,0,0,1,1.53-4.67C307.68,388.11,308.31,390,308.06,390Z"/><path class="cls-20" d="M307.66,390.15a8.39,8.39,0,0,0-1.2,2.62c-.32,1.12-.45,2.52-.76,3.28,0,.89-.05,1.51-.05,1.51s.11,0,.43-.12c.15-.05,0-.61.3-3.31.2-1.81,1.2-4,1.68-4.1.14,0,0-.58-.18-1l-.34-.05C307.48,389.56,307.82,390,307.66,390.15Z"/><path class="cls-21" d="M307.36,388.41c-.14.17.42,1.62.7,1.62S307.7,388,307.36,388.41Z"/><path class="cls-22" d="M308.43,426.54a11.2,11.2,0,0,0-2.88-.16c-.94.1-1.71-.38-.91-.6A5.48,5.48,0,0,1,308.43,426.54Z"/><rect class="cls-8" x="385.18" y="330.19" width="81.01" height="144.11" rx="22.65"/><path class="cls-4" d="M436.34,370.71c-4.33,35.41-5.3,69.37-15.89,71.69-6.65,1.45-10.64-2.09-10.64-2.09s-6.59-4.42,2.71-28.61,17.14-41.55,18.56-44.65c1.49-3.25,3.76-6.76,4.55-6.57s1.24,3.46,1.06,5.71Z"/><path class="cls-24" d="M420.45,442.4c10.59-2.32,11.56-36.28,15.89-71.69l.35-4.52c.18-2.25-.27-5.52-1.06-5.71L416,442.68A14.55,14.55,0,0,0,420.45,442.4Z"/><g class="cls-25"><path class="cls-26" d="M418,413.54a2.57,2.57,0,0,1-.86.09,2.79,2.79,0,0,1-.84-.24,2.27,2.27,0,0,1,1.7.15Z"/><path class="cls-26" d="M426.66,420a2.71,2.71,0,0,1-1.89,0,2.71,2.71,0,0,1,1.89,0Z"/><path class="cls-26" d="M413.72,426.23a5,5,0,0,1-1.19.15,5.36,5.36,0,0,1-1.19-.18,5,5,0,0,1,1.19-.15A5.24,5.24,0,0,1,413.72,426.23Z"/><path class="cls-26" d="M413.87,434.34a4.3,4.3,0,0,1-1,.17,3.51,3.51,0,0,1-1-.16,3.53,3.53,0,0,1,1-.18A3.33,3.33,0,0,1,413.87,434.34Z"/><path class="cls-26" d="M424.91,437.33a5.4,5.4,0,0,1-1.05.37,5.55,5.55,0,0,1-1.12.05,3.61,3.61,0,0,1,2.17-.42Z"/><path class="cls-26" d="M421.13,429.52a2.32,2.32,0,0,1-.93.1,1.76,1.76,0,0,1-.86-.35s.46,0,.9,0A4.73,4.73,0,0,1,421.13,429.52Z"/><path class="cls-26" d="M429,406.71a3.87,3.87,0,0,1-1,.17,3.44,3.44,0,0,1-1-.17,2.88,2.88,0,0,1,1.95,0Z"/><path class="cls-26" d="M432.24,398.17a3.52,3.52,0,0,1-.9-.17,3.05,3.05,0,0,1-.79-.49,3.4,3.4,0,0,1,.91.18A2.73,2.73,0,0,1,432.24,398.17Z"/><path class="cls-26" d="M419.43,405.18a2.92,2.92,0,0,1-.88.14,3.28,3.28,0,0,1-.86-.18,2.31,2.31,0,0,1,1.74,0Z"/><path class="cls-26" d="M421.65,397.11a3.77,3.77,0,0,1-1,.16,3.81,3.81,0,0,1-1-.18,3.77,3.77,0,0,1,1-.16A3.81,3.81,0,0,1,421.65,397.11Z"/><path class="cls-26" d="M429.87,392.73a5.31,5.31,0,0,1-1.24.13,5.47,5.47,0,0,1-1.24-.21,6.58,6.58,0,0,1,1.25-.12A5.48,5.48,0,0,1,429.87,392.73Z"/><path class="cls-26" d="M430.63,384.22a4,4,0,0,1-1.1.06,4.23,4.23,0,0,1-1.08-.27,4.49,4.49,0,0,1,1.11-.06A5.25,5.25,0,0,1,430.63,384.22Z"/><path class="cls-26" d="M429.61,376.42a3.8,3.8,0,0,1-.93-.19,3,3,0,0,1-.82-.49,3.58,3.58,0,0,1,.94.18A3.26,3.26,0,0,1,429.61,376.42Z"/><path class="cls-26" d="M434.77,367.59a.8.8,0,0,1-.44,0,.88.88,0,0,1-.33-.3.73.73,0,0,1,.45,0C434.63,367.39,434.78,367.56,434.77,367.59Z"/><path class="cls-26" d="M435,374.35a1.8,1.8,0,0,1-.64-.07,1.47,1.47,0,0,1-.53-.38,1.4,1.4,0,0,1,.64.07A1.47,1.47,0,0,1,435,374.35Z"/><path class="cls-26" d="M433.49,388.46a2,2,0,0,1-.76-.11,2.1,2.1,0,0,1-.63-.42,2.16,2.16,0,0,1,.75.11A2.55,2.55,0,0,1,433.49,388.46Z"/><path class="cls-26" d="M424.77,389a3.51,3.51,0,0,1-1,0,3.15,3.15,0,0,1-.94-.28,3.76,3.76,0,0,1,1,0A3.35,3.35,0,0,1,424.77,389Z"/><path class="cls-26" d="M428,426.59a3.79,3.79,0,0,1-1,.28,3.3,3.3,0,0,1-1,0,3.89,3.89,0,0,1,1-.29A3.54,3.54,0,0,1,428,426.59Z"/><path class="cls-26" d="M430.9,414.24a3.64,3.64,0,0,1-1,.1,3.45,3.45,0,0,1-1-.23,4.15,4.15,0,0,1,1-.1A3.45,3.45,0,0,1,430.9,414.24Z"/><path class="cls-26" d="M413.06,419.44a3.36,3.36,0,0,1-1,.16,3.57,3.57,0,0,1-1-.17,3.77,3.77,0,0,1,1-.16A4.65,4.65,0,0,1,413.06,419.44Z"/><path class="cls-26" d="M409.15,431.89a2.42,2.42,0,0,1-.79.18,2.48,2.48,0,0,1-.8-.16,2.51,2.51,0,0,1,.79-.18A2.48,2.48,0,0,1,409.15,431.89Z"/></g><rect class="cls-4" x="168.37" y="394.65" width="16.83" height="10.79" rx="5.39"/><polygon class="cls-15" points="182.38 399.62 173.61 399.62 176.21 397.2 175.63 396.58 171.91 400.04 175.63 403.5 176.21 402.88 173.61 400.46 182.38 400.46 182.38 399.62"/><rect class="cls-4" x="458.87" y="394.65" width="16.83" height="10.79" rx="5.39" transform="translate(934.57 800.08) rotate(180)"/><polygon class="cls-15" points="461.69 399.62 470.46 399.62 467.86 397.2 468.44 396.58 472.16 400.04 468.44 403.5 467.86 402.88 470.46 400.46 461.69 400.46 461.69 399.62"/><rect class="cls-4" x="277.68" y="504.14" width="88.85" height="16.79" rx="8.4"/><path class="cls-15" d="M305.22,513.85a2.08,2.08,0,0,1-.09.63,2,2,0,0,1-.24.51,1.64,1.64,0,0,1-.38.41,2.35,2.35,0,0,1-.49.29,3,3,0,0,1-.6.17,3.88,3.88,0,0,1-.72.06h-1.89a.4.4,0,0,1-.24-.09.35.35,0,0,1-.11-.3v-6.44a.39.39,0,0,1,.11-.31.46.46,0,0,1,.24-.08h1.65a3.92,3.92,0,0,1,1.06.12,1.89,1.89,0,0,1,.69.36,1.46,1.46,0,0,1,.41.57,2.11,2.11,0,0,1,.14.77,1.93,1.93,0,0,1-.06.49,1.57,1.57,0,0,1-.18.44,1.43,1.43,0,0,1-.3.35,1.49,1.49,0,0,1-.42.26,1.73,1.73,0,0,1,.55.2,1.82,1.82,0,0,1,.45.38,1.78,1.78,0,0,1,.31.54A2,2,0,0,1,305.22,513.85Zm-1.45-3.23a1.47,1.47,0,0,0-.07-.48.86.86,0,0,0-.23-.36,1.09,1.09,0,0,0-.4-.22,2.4,2.4,0,0,0-.67-.08h-1v2.34h1.09a1.44,1.44,0,0,0,.6-.1,1,1,0,0,0,.38-.26.94.94,0,0,0,.22-.39A1.37,1.37,0,0,0,303.77,510.62Zm.44,3.29a1.61,1.61,0,0,0-.1-.57,1.07,1.07,0,0,0-.31-.42,1.33,1.33,0,0,0-.49-.25,2.65,2.65,0,0,0-.75-.09h-1.15v2.55h1.39a2,2,0,0,0,.58-.08,1.27,1.27,0,0,0,.43-.23,1.1,1.1,0,0,0,.29-.38A1.29,1.29,0,0,0,304.21,513.91Z"/><path class="cls-15" d="M312.11,513.25a3.36,3.36,0,0,1-.2,1.18,2.31,2.31,0,0,1-.55.87,2.14,2.14,0,0,1-.87.54,3.25,3.25,0,0,1-1.16.19,3.16,3.16,0,0,1-1.09-.18,2.11,2.11,0,0,1-.84-.51,2.16,2.16,0,0,1-.55-.84,3.5,3.5,0,0,1-.19-1.17v-4.49a.09.09,0,0,1,0-.07s0,0,.08-.06l.14,0,.23,0,.23,0,.15,0a.17.17,0,0,1,.08.06.14.14,0,0,1,0,.07v4.37a2.93,2.93,0,0,0,.12.88,1.66,1.66,0,0,0,.36.62,1.49,1.49,0,0,0,.55.37,2,2,0,0,0,.74.13,1.88,1.88,0,0,0,.74-.13,1.42,1.42,0,0,0,.56-.36,1.72,1.72,0,0,0,.34-.61,2.72,2.72,0,0,0,.12-.85v-4.42a.09.09,0,0,1,0-.07s0,0,.07-.06l.15,0,.23,0,.23,0,.14,0s.07,0,.08.06a.09.09,0,0,1,0,.07Z"/><path class="cls-15" d="M318,515.53a.91.91,0,0,1,0,.17.5.5,0,0,1,0,.13l-.06.07-.09,0h-3.46a.36.36,0,0,1-.24-.09.33.33,0,0,1-.12-.3v-6.44a.36.36,0,0,1,.12-.31.41.41,0,0,1,.24-.08h3.43l.08,0,.06.07,0,.13a1,1,0,0,1,0,.19.91.91,0,0,1,0,.17l0,.12a.14.14,0,0,1-.06.07l-.08,0H315v2.26h2.42a.11.11,0,0,1,.08,0,.16.16,0,0,1,.07.07,1,1,0,0,1,0,.12,1.63,1.63,0,0,1,0,.36l0,.12s0,0-.07.06l-.08,0H315v2.58h2.86l.09,0a.14.14,0,0,1,.06.07.34.34,0,0,1,0,.12A1,1,0,0,1,318,515.53Z"/><path class="cls-15" d="M327.64,515.53a.58.58,0,0,1,0,.19.4.4,0,0,1-.1.12.35.35,0,0,1-.13.08l-.15,0h-.32a1,1,0,0,1-.26,0,.65.65,0,0,1-.22-.11,1.46,1.46,0,0,1-.2-.22,2.87,2.87,0,0,1-.21-.36l-2.21-4.11c-.11-.21-.23-.43-.35-.67l-.32-.68h0c0,.27,0,.55,0,.83s0,.55,0,.83v4.36a.11.11,0,0,1,0,.07s0,0-.08.06l-.14,0-.24,0-.23,0-.14,0a.17.17,0,0,1-.08-.06.19.19,0,0,1,0-.07v-6.67a.39.39,0,0,1,.12-.32.49.49,0,0,1,.28-.09h.47a1.09,1.09,0,0,1,.28,0,.41.41,0,0,1,.2.09.76.76,0,0,1,.18.18,2.91,2.91,0,0,1,.17.28l1.7,3.18.3.56.28.55.27.52c.08.18.17.35.26.53h0c0-.3,0-.61,0-.92v-4.84a.08.08,0,0,1,0-.07l.08-.06.15,0h.46l.15,0a.22.22,0,0,1,.07.06.09.09,0,0,1,0,.07Z"/><path class="cls-15" d="M335.61,512.23a5.54,5.54,0,0,1-.21,1.58,3.21,3.21,0,0,1-.62,1.19,2.55,2.55,0,0,1-1,.76,4,4,0,0,1-2.85,0,2.41,2.41,0,0,1-1-.7,3,3,0,0,1-.58-1.15,5.85,5.85,0,0,1-.19-1.58,5.33,5.33,0,0,1,.21-1.55,3.07,3.07,0,0,1,.62-1.19,2.69,2.69,0,0,1,1-.75,3.56,3.56,0,0,1,1.44-.27,3.64,3.64,0,0,1,1.39.24,2.55,2.55,0,0,1,1,.7,3.08,3.08,0,0,1,.59,1.14A6.06,6.06,0,0,1,335.61,512.23Zm-1,.06a5.13,5.13,0,0,0-.11-1.14,2.48,2.48,0,0,0-.36-.91,1.75,1.75,0,0,0-.68-.61,2.32,2.32,0,0,0-1-.22,2.09,2.09,0,0,0-1,.24,1.88,1.88,0,0,0-.69.62,2.63,2.63,0,0,0-.38.92,4.8,4.8,0,0,0-.11,1.09,6,6,0,0,0,.1,1.17,2.58,2.58,0,0,0,.36.93,1.69,1.69,0,0,0,.67.6,2.35,2.35,0,0,0,1.06.22,2.16,2.16,0,0,0,1.06-.24,2,2,0,0,0,.69-.63,2.75,2.75,0,0,0,.37-.93A5.65,5.65,0,0,0,334.59,512.29Z"/><path class="cls-15" d="M343.92,515.71a.35.35,0,0,1-.07.12.25.25,0,0,1-.12.08,1,1,0,0,1-.19,0l-.28,0-.3,0a1.06,1.06,0,0,1-.2,0,.19.19,0,0,1-.11-.08.23.23,0,0,1-.06-.12l-1.52-5.45h0l-1.39,5.45a.34.34,0,0,1-.06.12.23.23,0,0,1-.11.08.84.84,0,0,1-.19,0l-.29,0-.31,0a.94.94,0,0,1-.2,0,.25.25,0,0,1-.12-.08.23.23,0,0,1-.06-.12L336.42,509a1,1,0,0,1,0-.2.1.1,0,0,1,0-.11.21.21,0,0,1,.15-.05l.29,0h.27l.16,0a.16.16,0,0,1,.07.07.41.41,0,0,1,0,.1l1.62,6h0l1.54-6s0-.08,0-.11a.24.24,0,0,1,.08-.06.35.35,0,0,1,.16,0l.27,0,.25,0a.33.33,0,0,1,.15,0,.17.17,0,0,1,.08.06.36.36,0,0,1,0,.11l1.66,6h0l1.59-6a.3.3,0,0,1,0-.1.11.11,0,0,1,.07-.06.28.28,0,0,1,.15,0l.26,0,.26,0a.32.32,0,0,1,.14.05.12.12,0,0,1,0,.11.88.88,0,0,1,0,.2Z"/><path class="cls-27" d="M519.33,581c-.85-1.13-17.86-41.11-18.71-50.18s-5.95-86.47-15-95.54-17.86,2-17.86,2-7.37-30.33-25.24-13.61c0,0-11.05-19.28-19.56-16.16s-5.1,29.49-5.1,29.49-.44,7.31-5.67-3.4c-7.47-15.33-27-82-38.84-78.82-18.12,4.93,22.4,114.54,22.4,114.54s-19.37-29.17-33.94-19.36a3.49,3.49,0,0,0-.41,5.43c4.72,4.47,14.18,14.43,18.47,26.12,5.31,14.46,0,32.89,45.93,63.5l15,42.53s56.51,18,78.45-6.43C519.32,581,519.36,581,519.33,581Z"/><path class="cls-28" d="M136.63,446.79v30.73s-24.33,36.2-24.53,29.89-6.11-36.12-3.66-39.12S130,440.45,130,440.45Z"/><path class="cls-27" d="M173.71,428.63c-18.54.79-19.27,31.77-30.39,44-5.53,6.05-10.7,6.48-14.64,5.21a10.67,10.67,0,0,1-6.28-14.57c4-8.85,14.23-16.44,14.23-16.44V424.67l-31.28,27.7a24.09,24.09,0,0,0-7.73,13.71c-7.71,42.24,6.71,115.09,6.71,115.09s27.73,11,58.26,0l-7.65-34.87c17-17.86,14.88-59.11,15.73-76.12.65-13,4.52-30.18,6.32-37.59A3.21,3.21,0,0,0,173.71,428.63Z"/><path class="cls-29" d="M175.87,433.13l-2.13,7.76a2.26,2.26,0,0,1-2.08,1.67c-1.84.09-4.67-.08-5.58-1.83-1.4-2.67,3-8,4.43-9.1S176.31,431.48,175.87,433.13Z"/><path class="cls-29" d="M362.94,454.61l5.75,5.62a2.26,2.26,0,0,0,2.64.39c1.64-.85,4-2.43,3.89-4.4-.14-3-6.61-5.34-8.42-5.61S361.72,453.41,362.94,454.61Z"/><path class="cls-29" d="M373.35,374.09s6.31,1.12,9.87-2.54c0,0-3.46-16-8.75-14.56C368.43,358.68,373.35,374.09,373.35,374.09Z"/><rect class="cls-8" x="179.31" y="481.46" width="68.13" height="3.13"/><rect class="cls-8" x="179.31" y="488.71" width="68.13" height="3.13"/><rect class="cls-8" x="179.31" y="495.96" width="68.13" height="3.13"/><rect class="cls-8" x="288.04" y="481.46" width="68.13" height="3.13"/><rect class="cls-8" x="288.04" y="488.71" width="68.13" height="3.13"/><path class="cls-7" d="M395.85,99.34l-2.58,19.49,13.84-10.11L449.5,87.06l-32.78,3S400,94.12,399.11,94.94A41.45,41.45,0,0,0,395.85,99.34Z"/><polygon class="cls-4" points="381.33 87.56 449.5 87.06 395.85 99.33 381.33 87.56"/><polygon class="cls-4" points="417.77 118.95 399.9 104.6 449.5 87.06 417.77 118.95"/><path class="cls-12" d="M178.71,253.82a13.91,13.91,0,0,1-5.46-1.1l.51-1.08a12.79,12.79,0,0,0,5,1Z"/><path class="cls-12" d="M189.66,252.41l-.28-1.16a104.34,104.34,0,0,0,10.41-3.12l.39,1.13A105.69,105.69,0,0,1,189.66,252.41Zm20.73-7.16-.47-1.09c3.49-1.51,6.9-3.12,9.84-4.65l.55,1.06C217.34,242.11,213.91,243.73,210.39,245.25Zm19-11-.85-.84a39.63,39.63,0,0,0,6.42-8.59l1,.58A40.78,40.78,0,0,1,229.4,234.28Zm22.61-4.4a36.54,36.54,0,0,1-11-1.32l.32-1.15A35.12,35.12,0,0,0,252,228.69Zm10.88-1.9-.36-1.14a36.88,36.88,0,0,0,9.6-4.74l.68,1A38.07,38.07,0,0,1,262.89,228ZM231,223.79a31.65,31.65,0,0,1-7.83-7.83l1-.68a30.26,30.26,0,0,0,7.53,7.53Zm49.79-8.3-.93-.75a68.91,68.91,0,0,0,5.93-9l1,.59A71.36,71.36,0,0,1,280.83,215.49Zm-40.77-.33-1.15-.29a39.45,39.45,0,0,0,1.17-10.66l1.19,0A40.26,40.26,0,0,1,240.06,215.16Zm-21-9.47c-.11-.68-.19-1.38-.24-2.07l0-.53a18,18,0,0,1,1.57-8.43l1.08.51A16.64,16.64,0,0,0,220,203c0,.17,0,.34,0,.5.05.66.12,1.32.22,2Zm73.09-9-1.05-.56,1.49-2.75q1.84-3.44,3.7-6.86l1.05.56c-1.24,2.29-2.47,4.58-3.71,6.86ZM237.6,194a9,9,0,0,0-5.58-4.61,7.66,7.66,0,0,0-2.75-.17l-.14-1.18a8.68,8.68,0,0,1,3.18.19,10.28,10.28,0,0,1,6.33,5.18Zm65-16.43-1-.59c2-3.45,3.77-6.54,5.53-9.44l1,.62C306.33,171,304.53,174.11,302.58,177.55ZM314,159l-1-.67c2.12-3.14,4.27-6.13,6.4-8.89l.94.73C318.2,152.88,316.06,155.85,314,159Zm13.31-17.18-.89-.8c2.51-2.77,5.11-5.39,7.73-7.79l.81.88C332.32,136.46,329.75,139.05,327.27,141.79Zm16-14.59-.71-1a102.92,102.92,0,0,1,9.19-6l.59,1A101.85,101.85,0,0,0,343.3,127.2ZM362,116.32l-.49-1.09a106,106,0,0,1,10.25-3.92l.37,1.14A99.16,99.16,0,0,0,362,116.32Z"/><path class="cls-12" d="M382.68,109.67l-.24-1.16c1.76-.37,3.55-.68,5.31-1l.18,1.18C386.18,109,384.42,109.32,382.68,109.67Z"/><path class="cls-2" d="M476.23,189.06a17.93,17.93,0,0,0-17.47-13.9,17.72,17.72,0,0,0-4.52.58,26.4,26.4,0,0,0-31.75-14,32.52,32.52,0,0,0-58.41,5.68,22.3,22.3,0,0,0-33.16,19.49c0,.73,0,1.46.11,2.17Z"/><path class="cls-2" d="M567,126.26a10.36,10.36,0,0,0-10.09-8,10.66,10.66,0,0,0-2.61.33,15.28,15.28,0,0,0-18.34-8.1,18.8,18.8,0,0,0-33.75,3.28A12.89,12.89,0,0,0,483,125c0,.42,0,.83.06,1.25Z"/><path class="cls-2" d="M366.43,75.35a4.69,4.69,0,0,0-5.74-3.47,6.87,6.87,0,0,0-8.27-3.66,8.49,8.49,0,0,0-15.24,1.48,5.82,5.82,0,0,0-8.64,5.09c0,.19,0,.38,0,.56Z"/><path class="cls-2" d="M252.21,105.64A10.34,10.34,0,0,1,264.92,98a15.22,15.22,0,0,1,13.8-8.79,15.06,15.06,0,0,1,4.53.69A18.79,18.79,0,0,1,317,93.13a12.75,12.75,0,0,1,6.26-1.63,12.89,12.89,0,0,1,12.89,12.89c0,.42,0,.84-.06,1.25Z"/><path class="cls-7" d="M359.89,302.71h58.75a0,0,0,0,1,0,0v1.21a29.37,29.37,0,0,1-29.37,29.37h0a29.37,29.37,0,0,1-29.37-29.37v-1.21A0,0,0,0,1,359.89,302.71Z"/><path class="cls-30" d="M301.14,302.71h58.75a0,0,0,0,1,0,0v1.21a29.37,29.37,0,0,1-29.37,29.37h0a29.37,29.37,0,0,1-29.37-29.37v-1.21A0,0,0,0,1,301.14,302.71Z"/><path class="cls-7" d="M242.39,302.71h58.75a0,0,0,0,1,0,0v1.21a29.37,29.37,0,0,1-29.37,29.37h0a29.37,29.37,0,0,1-29.37-29.37v-1.21a0,0,0,0,1,0,0Z"/><path class="cls-30" d="M183.64,302.71h58.75a0,0,0,0,1,0,0v1.21A29.37,29.37,0,0,1,213,333.29h0a29.37,29.37,0,0,1-29.37-29.37v-1.21A0,0,0,0,1,183.64,302.71Z"/><path class="cls-7" d="M124.9,302.71h58.75a0,0,0,0,1,0,0v1.21a29.37,29.37,0,0,1-29.37,29.37h0a29.37,29.37,0,0,1-29.37-29.37v-1.21a0,0,0,0,1,0,0Z"/><path class="cls-30" d="M536,302.71h58.75a0,0,0,0,1,0,0v1.21a29.37,29.37,0,0,1-29.37,29.37h0A29.37,29.37,0,0,1,536,303.92v-1.21A0,0,0,0,1,536,302.71Z"/><path class="cls-7" d="M477.24,302.71H536a0,0,0,0,1,0,0v1.21a29.37,29.37,0,0,1-29.37,29.37h0a29.37,29.37,0,0,1-29.37-29.37v-1.21A0,0,0,0,1,477.24,302.71Z"/><path class="cls-30" d="M418.63,302.71h58.75a0,0,0,0,1,0,0v1.21A29.37,29.37,0,0,1,448,333.29h0a29.37,29.37,0,0,1-29.37-29.37v-1.21A0,0,0,0,1,418.63,302.71Z"/><path class="cls-30" d="M66.15,302.71H124.9a0,0,0,0,1,0,0v1.21a29.37,29.37,0,0,1-29.37,29.37h0a29.37,29.37,0,0,1-29.37-29.37v-1.21a0,0,0,0,1,0,0Z"/><polygon class="cls-8" points="351.4 258.28 309.63 258.28 301.14 302.71 359.89 302.71 351.4 258.28"/><polygon class="cls-31" points="309.63 258.28 267.86 258.28 242.39 302.71 301.14 302.71 309.63 258.28"/><polygon class="cls-8" points="267.86 258.28 226.09 258.28 183.64 302.71 242.39 302.71 267.86 258.28"/><polygon class="cls-31" points="226.09 258.28 184.32 258.28 124.9 302.71 183.64 302.71 226.09 258.28"/><polygon class="cls-8" points="184.32 258.28 142.55 258.28 66.15 302.71 124.9 302.71 184.32 258.28"/><polygon class="cls-8" points="518.19 258.28 476.43 258.28 535.99 302.71 594.74 302.71 518.19 258.28"/><polygon class="cls-31" points="476.63 258.28 434.86 258.28 477.25 302.71 535.99 302.71 476.63 258.28"/><polygon class="cls-8" points="434.86 258.28 393.1 258.28 418.63 302.71 477.38 302.71 434.86 258.28"/><polygon class="cls-31" points="393.1 258.28 351.33 258.28 359.89 302.71 418.63 302.71 393.1 258.28"/></g></g></svg>