<?xml version="1.0" encoding="UTF-8" standalone="no"?>
<!-- Created with Inkscape (http://www.inkscape.org/) -->

<svg
   xmlns:dc="http://purl.org/dc/elements/1.1/"
   xmlns:cc="http://creativecommons.org/ns#"
   xmlns:rdf="http://www.w3.org/1999/02/22-rdf-syntax-ns#"
   xmlns:svg="http://www.w3.org/2000/svg"
   xmlns="http://www.w3.org/2000/svg"
   xmlns:sodipodi="http://sodipodi.sourceforge.net/DTD/sodipodi-0.dtd"
   xmlns:inkscape="http://www.inkscape.org/namespaces/inkscape"
   width="132.3228mm"
   height="247.01552mm"
   viewBox="0 0 132.3228 247.01552"
   version="1.1"
   id="svg12378"
   inkscape:version="0.92.5 (2060ec1f9f, 2020-04-08)"
   sodipodi:docname="nadb.svg">
  <defs
     id="defs12372">
    <clipPath
       id="clipPath7295"
       clipPathUnits="userSpaceOnUse">
      <path
         inkscape:connector-curvature="0"
         id="path7293"
         d="m 3275.24,2464.69 c 4.15,2.42 8.16,3.97 11.85,4.74 l -10.94,-6.25 -12.26,-6.97 c 3.55,3.33 7.38,6.2 11.35,8.48 z" />
    </clipPath>
    <linearGradient
       id="linearGradient7303"
       spreadMethod="pad"
       gradientTransform="matrix(23.1297,13.354,13.354,-23.1297,3263.51,2456.87)"
       gradientUnits="userSpaceOnUse"
       y2="0"
       x2="1"
       y1="0"
       x1="0">
      <stop
         id="stop7297"
         offset="0"
         style="stop-opacity:1;stop-color:#4f62b7" />
      <stop
         id="stop7299"
         offset="0.989247"
         style="stop-opacity:1;stop-color:#5eb5e8" />
      <stop
         id="stop7301"
         offset="1"
         style="stop-opacity:1;stop-color:#5eb5e8" />
    </linearGradient>
    <clipPath
       id="clipPath7313"
       clipPathUnits="userSpaceOnUse">
      <path
         inkscape:connector-curvature="0"
         id="path7311"
         d="m 3310.07,2449.96 c 0,-19.24 -15.59,-43.86 -34.83,-54.98 -19.24,-11.12 -34.83,-4.51 -34.83,14.73 0,19.24 15.59,43.86 34.83,54.98 19.24,11.12 34.83,4.51 34.83,-14.73 z" />
    </clipPath>
    <linearGradient
       id="linearGradient7321"
       spreadMethod="pad"
       gradientTransform="matrix(69.6639,0,0,-69.6639,3240.41,2429.83)"
       gradientUnits="userSpaceOnUse"
       y2="0"
       x2="1"
       y1="0"
       x1="0">
      <stop
         id="stop7315"
         offset="0"
         style="stop-opacity:1;stop-color:#4f62b7" />
      <stop
         id="stop7317"
         offset="0.989247"
         style="stop-opacity:1;stop-color:#5eb5e8" />
      <stop
         id="stop7319"
         offset="1"
         style="stop-opacity:1;stop-color:#5eb5e8" />
    </linearGradient>
    <clipPath
       id="clipPath7331"
       clipPathUnits="userSpaceOnUse">
      <path
         inkscape:connector-curvature="0"
         id="path7329"
         d="m 3292.64,2468.34 c -4.92,0 -10.6,-1.75 -16.52,-5.17 -18.72,-10.83 -33.95,-34.81 -33.95,-53.47 0,-7.73 2.7,-13.54 7.62,-16.38 6.06,-3.5 15.02,-2.34 24.57,3.18 18.73,10.83 33.96,34.81 33.96,53.46 0,7.73 -2.71,13.55 -7.63,16.38 -2.3,1.34 -5.03,2 -8.05,2 z m -34.82,-80.51 c -3.64,0 -6.95,0.81 -9.79,2.45 -6.05,3.49 -9.38,10.39 -9.38,19.42 0,19.78 16.02,45.13 35.71,56.51 10.67,6.17 20.9,7.33 28.09,3.18 6.05,-3.49 9.38,-10.39 9.38,-19.43 0,-19.77 -16.02,-45.12 -35.71,-56.5 -6.45,-3.73 -12.75,-5.63 -18.3,-5.63 z" />
    </clipPath>
    <linearGradient
       id="linearGradient7337"
       spreadMethod="pad"
       gradientTransform="matrix(78.9924,45.6063,45.6063,-78.9924,3235.74,2407.03)"
       gradientUnits="userSpaceOnUse"
       y2="0"
       x2="1"
       y1="0"
       x1="0">
      <stop
         id="stop7333"
         offset="0"
         style="stop-opacity:1;stop-color:#f9aa51" />
      <stop
         id="stop7335"
         offset="1"
         style="stop-opacity:1;stop-color:#f14758" />
    </linearGradient>
    <clipPath
       id="clipPath7371"
       clipPathUnits="userSpaceOnUse">
      <path
         inkscape:connector-curvature="0"
         id="path7369"
         d="m 3438.11,3067.54 -2.76,9.36 1.9,24.07 c 0,0 2.91,6.87 4.91,6.87 0.1,0 0.19,-0.02 0.28,-0.05 0,0 2,-33.21 -4.33,-40.25" />
    </clipPath>
    <linearGradient
       id="linearGradient7381"
       spreadMethod="pad"
       gradientTransform="matrix(7.38691,0,0,-7.38691,3435.35,3087.69)"
       gradientUnits="userSpaceOnUse"
       y2="0"
       x2="1"
       y1="0"
       x1="0">
      <stop
         id="stop7373"
         offset="0"
         style="stop-opacity:1;stop-color:#fab8c5" />
      <stop
         id="stop7375"
         offset="0.00537634"
         style="stop-opacity:1;stop-color:#fab8c5" />
      <stop
         id="stop7377"
         offset="0.989247"
         style="stop-opacity:1;stop-color:#fab6c4" />
      <stop
         id="stop7379"
         offset="1"
         style="stop-opacity:1;stop-color:#fab6c4" />
    </linearGradient>
    <clipPath
       id="clipPath7393"
       clipPathUnits="userSpaceOnUse">
      <path
         inkscape:connector-curvature="0"
         id="path7391"
         d="m 3831.55,1983.03 c -1.06,0 -2.08,0.04 -3.04,0.14 -7.54,0.74 -35.15,12.47 -60.11,24.29 -1.37,3.45 -2.14,4.71 -2.14,4.71 v 0 c 0,0.03 1.34,12.94 1.01,31.11 l 42.73,-6.77 c 0,-0.02 0,-0.02 0,-0.02 v 0 0 c 0,0 1.08,-8.55 6.6,-11.79 3.14,-1.79 7.03,-3.03 11.09,-3.57 v 0 c 0.19,-0.03 0.39,-0.06 0.59,-0.08 0.5,-10.73 1.8,-25.89 5.15,-37.99 -0.63,-0.02 -1.26,-0.03 -1.88,-0.03" />
    </clipPath>
    <linearGradient
       id="linearGradient7403"
       spreadMethod="pad"
       gradientTransform="matrix(111.447,0,0,-111.447,3721.99,2016.58)"
       gradientUnits="userSpaceOnUse"
       y2="0"
       x2="1"
       y1="0"
       x1="0">
      <stop
         id="stop7395"
         offset="0"
         style="stop-opacity:1;stop-color:#11100f" />
      <stop
         id="stop7397"
         offset="0.00537634"
         style="stop-opacity:1;stop-color:#11100f" />
      <stop
         id="stop7399"
         offset="0.989247"
         style="stop-opacity:1;stop-color:#100f0d" />
      <stop
         id="stop7401"
         offset="1"
         style="stop-opacity:1;stop-color:#100f0d" />
    </linearGradient>
    <clipPath
       id="clipPath7415"
       clipPathUnits="userSpaceOnUse">
      <path
         inkscape:connector-curvature="0"
         id="path7413"
         d="m 3753.6,1955.14 c -5.39,0 -11.76,0.72 -19.25,2.56 -35.92,8.66 -72.16,30.89 -76.22,35.54 -2.71,3.07 -5.42,17.17 -5.42,28.42 0,5.59 0.66,10.48 2.34,12.96 0.57,0.85 1.45,1.23 2.61,1.23 4.36,0 12.62,-5.38 23.09,-10.77 10.46,-5.38 23.13,-10.76 36.3,-10.76 0.88,0 1.76,0.02 2.64,0.07 0,-0.02 1.08,-8.55 6.6,-11.79 3.13,-1.79 7.03,-3.03 11.09,-3.57 v 0 0 c 0.03,-0.09 10.08,-25.57 24.34,-43.28 -2.41,-0.39 -5.11,-0.61 -8.12,-0.61" />
    </clipPath>
    <linearGradient
       id="linearGradient7425"
       spreadMethod="pad"
       gradientTransform="matrix(109.013,0,0,-109.013,3652.71,1995.49)"
       gradientUnits="userSpaceOnUse"
       y2="0"
       x2="1"
       y1="0"
       x1="0">
      <stop
         id="stop7417"
         offset="0"
         style="stop-opacity:1;stop-color:#11100f" />
      <stop
         id="stop7419"
         offset="0.00537634"
         style="stop-opacity:1;stop-color:#11100f" />
      <stop
         id="stop7421"
         offset="0.989247"
         style="stop-opacity:1;stop-color:#100f0d" />
      <stop
         id="stop7423"
         offset="1"
         style="stop-opacity:1;stop-color:#100f0d" />
    </linearGradient>
    <clipPath
       id="clipPath7437"
       clipPathUnits="userSpaceOnUse">
      <path
         inkscape:connector-curvature="0"
         id="path7435"
         d="m 3877.01,2636.86 c -1.9,5.54 -3.95,11.43 -6.15,17.72 10.23,17.3 21.14,39.05 21.11,53.06 0,0.58 -0.02,1.14 -0.06,1.69 -0.98,13.6 -9.73,44.31 -17.72,70.11 3.86,11.3 7.64,24.53 10.4,41.51 11.4,-36.02 22.94,-74.6 24.36,-87.6 2.23,-20.64 -8.2,-52.6 -31.94,-96.49" />
    </clipPath>
    <linearGradient
       id="linearGradient7447"
       spreadMethod="pad"
       gradientTransform="matrix(129.036,-142.932,-142.932,-129.036,3800.18,2814.31)"
       gradientUnits="userSpaceOnUse"
       y2="0"
       x2="1"
       y1="0"
       x1="0">
      <stop
         id="stop7439"
         offset="0"
         style="stop-opacity:1;stop-color:#f89f1d" />
      <stop
         id="stop7441"
         offset="0.00537634"
         style="stop-opacity:1;stop-color:#f89f1d" />
      <stop
         id="stop7443"
         offset="0.989247"
         style="stop-opacity:1;stop-color:#f89c1a" />
      <stop
         id="stop7445"
         offset="1"
         style="stop-opacity:1;stop-color:#f89c1a" />
    </linearGradient>
    <clipPath
       id="clipPath7479"
       clipPathUnits="userSpaceOnUse">
      <path
         inkscape:connector-curvature="0"
         id="path7477"
         d="m 3713.18,2244.39 c -9.9,2.49 -18.82,7.09 -26.23,14.44 0,0 -14.45,131.67 -19.1,173.43 -1.14,10.28 -1.78,23.44 -1.78,38.12 -0.01,44.96 5.87,104.17 20.88,138.39 4.54,10.36 6.34,21.15 6.35,31.65 0.02,35.46 -20.33,67.65 -23.88,68.86 -3.46,1.24 -15.63,16.23 -20.18,39.27 4.92,-0.8 9.72,-1.23 14.27,-1.23 4.1,0 8,0.35 11.59,1.12 v 0 l 1.95,-1.13 c 0,0 26.07,-39.6 30.24,-58.59 4.11,-18.99 14.33,-45.87 -10.5,-170.02 -19.91,-99.8 5.57,-227.95 16.39,-274.31" />
    </clipPath>
    <linearGradient
       id="linearGradient7489"
       spreadMethod="pad"
       gradientTransform="matrix(308.392,0,0,-308.392,3404.79,2636.63)"
       gradientUnits="userSpaceOnUse"
       y2="0"
       x2="1"
       y1="0"
       x1="0">
      <stop
         id="stop7481"
         offset="0"
         style="stop-opacity:1;stop-color:#f68c13" />
      <stop
         id="stop7483"
         offset="0.00537634"
         style="stop-opacity:1;stop-color:#f68c13" />
      <stop
         id="stop7485"
         offset="0.989247"
         style="stop-opacity:1;stop-color:#f68812" />
      <stop
         id="stop7487"
         offset="1"
         style="stop-opacity:1;stop-color:#f68812" />
    </linearGradient>
    <clipPath
       id="clipPath7499"
       clipPathUnits="userSpaceOnUse">
      <path
         inkscape:connector-curvature="0"
         id="path7497"
         d="m 3663.51,2747.32 c -4.55,0 -9.35,0.43 -14.27,1.23 v 0 c -18.88,2.98 -39.43,11.14 -54.31,19.58 -35.43,20.18 -125.99,77.03 -125.99,77.03 0,0 -18.09,39.93 -34.87,78.23 -12.32,28.12 -23.94,55.37 -27.17,65.29 -1.35,2.43 -2.11,5.57 -2.11,9.3 0,9.9 5.25,21.58 13.14,30.89 l 65.51,-168.24 164.02,-96.01 27.64,-16.18 c -3.59,-0.77 -7.49,-1.12 -11.59,-1.12" />
    </clipPath>
    <linearGradient
       id="linearGradient7509"
       spreadMethod="pad"
       gradientTransform="matrix(308.392,0,0,-308.392,3404.79,2636.63)"
       gradientUnits="userSpaceOnUse"
       y2="0"
       x2="1"
       y1="0"
       x1="0">
      <stop
         id="stop7501"
         offset="0"
         style="stop-opacity:1;stop-color:#f89f1d" />
      <stop
         id="stop7503"
         offset="0.00537634"
         style="stop-opacity:1;stop-color:#f89f1d" />
      <stop
         id="stop7505"
         offset="0.989247"
         style="stop-opacity:1;stop-color:#f89c1a" />
      <stop
         id="stop7507"
         offset="1"
         style="stop-opacity:1;stop-color:#f89c1a" />
    </linearGradient>
  </defs>
  <sodipodi:namedview
     id="base"
     pagecolor="#ffffff"
     bordercolor="#666666"
     borderopacity="1.0"
     inkscape:pageopacity="0.0"
     inkscape:pageshadow="2"
     inkscape:zoom="0.35"
     inkscape:cx="279.47966"
     inkscape:cy="413.94387"
     inkscape:document-units="mm"
     inkscape:current-layer="layer1"
     showgrid="false"
     fit-margin-top="0"
     fit-margin-left="0"
     fit-margin-right="0"
     fit-margin-bottom="0"
     inkscape:window-width="1876"
     inkscape:window-height="1016"
     inkscape:window-x="1680"
     inkscape:window-y="356"
     inkscape:window-maximized="1" />
  <metadata
     id="metadata12375">
    <rdf:RDF>
      <cc:Work
         rdf:about="">
        <dc:format>image/svg+xml</dc:format>
        <dc:type
           rdf:resource="http://purl.org/dc/dcmitype/StillImage" />
        <dc:title></dc:title>
      </cc:Work>
    </rdf:RDF>
  </metadata>
  <g
     inkscape:label="Capa 1"
     inkscape:groupmode="layer"
     id="layer1"
     transform="translate(-31.887673,-11.340468)">
    <g
       id="g12232"
       transform="matrix(0.14098941,0,0,-0.14098941,-1316.8899,385.9334)">
      <path
         d="m 10382.317,2621.3524 -48,-65.9 v -471.1 c 0,-20.6 -16.8,-47.11 -37.4,-59 l -570.0001,-329.1 -32.7,-18.9 -63.6,-87.2 -55,31.8 c -5.7,3.3 -9.1,9.8 -9.1,19.1 v 550.89 c 0,20.71 16.7,47.11 37.4,59.11 l 693.0001,399.99 c 12.5,7.31 23.5,7.51 30.4,2.01 l 55,-31.7"
         style="fill:#5f3070;fill-opacity:1;fill-rule:nonzero;stroke:none"
         id="path7263"
         inkscape:connector-curvature="0" />
      <path
         d="m 9727.1169,1697.4524 -0.2,-1.2 -32.7,-18.9 -63.6,-87.2 -55,31.8 c -5.7,3.3 -9.1,9.8 -9.1,19.1 v 550.9 l 54.3,-35.2 76.1,-64.8 -10.1,-131.1 40.3,-263.4"
         style="fill:#3b1d40;fill-opacity:1;fill-rule:nonzero;stroke:none"
         id="path7265"
         inkscape:connector-curvature="0" />
      <path
         d="m 10349.897,2618.5924 -688.2001,-397.34 c -22.58,-13.03 -40.88,-41.9 -40.88,-64.47 v -545.75 c 0,-22.57 18.3,-30.31 40.88,-17.27 l 688.2001,397.33 c 22.57,13.03 40.87,41.9 40.87,64.47 v 545.75 c 0,22.57 -18.3,30.31 -40.87,17.28"
         style="fill:#713e89;fill-opacity:1;fill-rule:nonzero;stroke:none"
         id="path7267"
         inkscape:connector-curvature="0" />
      <path
         d="m 9640.4569,1623.3724 v 543.75 c 0,12.28 9.96,27.98 22.24,35.07 l 686.2001,396.18 c 12.28,7.08 22.23,2.88 22.23,-9.4 v -543.75 c 0,-12.27 -9.95,-27.97 -22.23,-35.06 l -686.2001,-396.18 c -12.28,-7.09 -22.24,-2.89 -22.24,9.39"
         style="fill:#ffffff;fill-opacity:1;fill-rule:nonzero;stroke:none"
         id="path7269"
         inkscape:connector-curvature="0" />
      <path
         d="m 10230.147,2294.3124 -306.3601,-176.88 -23.48,4.3 -23.48,-31.41 -56.23,-32.46 v 124.75 l 377.4101,217.9 c 12.55,-5.31 19.59,-8.28 32.14,-13.59 v -92.61"
         style="fill:#f9a625;fill-opacity:1;fill-rule:nonzero;stroke:none"
         id="path7271"
         inkscape:connector-curvature="0" />
      <path
         d="m 10230.147,2157.3024 -306.3601,-176.87 -23.48,4.29 -23.48,-31.41 -16.95,-9.78 c -8.37,3.54 -13.06,5.52 -21.42,9.05 v 103.33 l 38.37,22.16 23.43,30.57 23.53,-3.46 286.3401,165.32 c 7.82,-3.3 12.2,-5.15 20.02,-8.46 v -15.62 l -24.6,-41.82 24.6,-14.67 v -32.63"
         style="fill:#e02825;fill-opacity:1;fill-rule:nonzero;stroke:none"
         id="path7273"
         inkscape:connector-curvature="0" />
      <path
         d="m 10230.147,2022.4924 -409.5501,-236.44 v 124.75 l 56.23,32.46 23.43,30.57 23.53,-3.46 286.3401,165.32 c 7.82,-3.3 12.2,-5.15 20.02,-8.46 v -104.74"
         style="fill:#67c8f0;fill-opacity:1;fill-rule:nonzero;stroke:none"
         id="path7275"
         inkscape:connector-curvature="0" />
      <path
         d="m 9866.3669,2116.3424 -105.47,-60.9 v 137.25 l 105.47,60.9 v -137.25"
         style="fill:#713e89;fill-opacity:1;fill-rule:nonzero;stroke:none"
         id="path7277"
         inkscape:connector-curvature="0" />
      <path
         d="m 10085.347,1604.1824 -60.86,35.12 -61.7201,-35.64 1.59,-0.9 59.2701,-34.22 61.72,35.64"
         style="fill:#4fb1df;fill-opacity:1;fill-rule:nonzero;stroke:none"
         id="path7279"
         inkscape:connector-curvature="0" />
      <path
         d="m 10023.627,1547.4824 -68.3901,39.49 9.12,15.79 59.2701,-34.22 61.72,35.64 v -21.06 l -61.72,-35.64"
         style="fill:#67c8f0;fill-opacity:1;fill-rule:nonzero;stroke:none"
         id="path7281"
         inkscape:connector-curvature="0" />
      <path
         d="m 9966.5269,1266.8924 -191.48,-109.34 v -39.61 l 191.48,109.35 v 39.6"
         style="fill:#67c8f0;fill-opacity:1;fill-rule:nonzero;stroke:none"
         id="path7283"
         inkscape:connector-curvature="0" />
      <path
         d="m 9775.0469,1157.5524 -127.66,73.7 v -39.6 l 127.66,-73.71 v 39.61"
         style="fill:#4099d0;fill-opacity:1;fill-rule:nonzero;stroke:none"
         id="path7285"
         inkscape:connector-curvature="0" />
      <path
         d="m 9838.8669,1340.5924 -191.48,-109.34 127.66,-73.7 191.48,109.34 -127.66,73.7"
         style="fill:#4fb1df;fill-opacity:1;fill-rule:nonzero;stroke:none"
         id="path7287"
         inkscape:connector-curvature="0" />
      <g
         transform="translate(6563.5869,-1035.1176)"
         id="g7289">
        <g
           id="g7291"
           clip-path="url(#clipPath7295)">
          <path
             d="m 3275.24,2464.69 c 4.15,2.42 8.16,3.97 11.85,4.74 l -10.94,-6.25 -12.26,-6.97 c 3.55,3.33 7.38,6.2 11.35,8.48"
             style="fill:url(#linearGradient7303);fill-opacity:1;fill-rule:nonzero;stroke:none"
             id="path7305"
             inkscape:connector-curvature="0" />
        </g>
      </g>
      <g
         transform="translate(6563.5869,-1035.1176)"
         id="g7307">
        <g
           id="g7309"
           clip-path="url(#clipPath7313)">
          <path
             d="m 3310.07,2449.96 c 0,-19.24 -15.59,-43.86 -34.83,-54.98 -19.24,-11.12 -34.83,-4.51 -34.83,14.73 0,19.24 15.59,43.86 34.83,54.98 19.24,11.12 34.83,4.51 34.83,-14.73"
             style="fill:url(#linearGradient7321);fill-opacity:1;fill-rule:nonzero;stroke:none"
             id="path7323"
             inkscape:connector-curvature="0" />
        </g>
      </g>
      <g
         transform="translate(6563.5869,-1035.1176)"
         id="g7325">
        <g
           id="g7327"
           clip-path="url(#clipPath7331)">
          <path
             d="m 3292.64,2468.34 c -4.92,0 -10.6,-1.75 -16.52,-5.17 -18.72,-10.83 -33.95,-34.81 -33.95,-53.47 0,-7.73 2.7,-13.54 7.62,-16.38 6.06,-3.5 15.02,-2.34 24.57,3.18 18.73,10.83 33.96,34.81 33.96,53.46 0,7.73 -2.71,13.55 -7.63,16.38 -2.3,1.34 -5.03,2 -8.05,2 z m -34.82,-80.51 c -3.64,0 -6.95,0.81 -9.79,2.45 -6.05,3.49 -9.38,10.39 -9.38,19.42 0,19.78 16.02,45.13 35.71,56.51 10.67,6.17 20.9,7.33 28.09,3.18 6.05,-3.49 9.38,-10.39 9.38,-19.43 0,-19.77 -16.02,-45.12 -35.71,-56.5 -6.45,-3.73 -12.75,-5.63 -18.3,-5.63"
             style="fill:url(#linearGradient7337);fill-opacity:1;fill-rule:nonzero;stroke:none"
             id="path7339"
             inkscape:connector-curvature="0" />
        </g>
      </g>
      <path
         d="m 9889.5669,1456.5624 -63.32,36.93 c -11.77,8.3 -30.05,7.43 -50.61,-4.47 -20.29,-11.72 -38.43,-31.59 -50.15,-53.11 -4.38,-8.03 -7.89,-16.23 -10.26,-24.35 -2.42,-8.11 -3.74,-16.14 -3.74,-23.71 v -156.4 l 63.44,-37.09 127.8,73.36 c 0,0 -24.71,197.06 -13.16,188.84"
         style="fill:#4099d0;fill-opacity:1;fill-rule:nonzero;stroke:none"
         id="path7341"
         inkscape:connector-curvature="0" />
      <path
         d="m 9988.6469,1628.5324 -128.98,-175.25 -70.22,40.3 98.85,145.35 c 5.51,8.61 13.13,16.36 21.33,21.11 5.98,3.46 10.26,4.19 12.86,4.19 0.55,0 1.37,0 2.33,-0.23 l 1.18,-0.32 1,-0.59 61.65,-34.56"
         style="fill:#4099d0;fill-opacity:1;fill-rule:nonzero;stroke:none"
         id="path7343"
         inkscape:connector-curvature="0" />
      <path
         d="m 9989.7869,1700.9524 76.8201,18.29 v -18.75 l -62.35,-14.84 -20.3601,-68.31 -17.48,5.22 23.37,78.39"
         style="fill:#67c8f0;fill-opacity:1;fill-rule:nonzero;stroke:none"
         id="path7345"
         inkscape:connector-curvature="0" />
      <path
         d="m 10066.607,1719.2424 -61.08,35.12 -76.8201,-18.29 -23.37,-78.39 61.08,-35.12 23.37,78.39 76.8201,18.29"
         style="fill:#4fb1df;fill-opacity:1;fill-rule:nonzero;stroke:none"
         id="path7347"
         inkscape:connector-curvature="0" />
      <path
         d="m 9992.2569,1618.7624 c 0,11.01 -6.27,11.01 -8.33,11.01 -2.56,0 -6.86,-0.73 -12.84,-4.18 -7.66,-4.42 -14.74,-11.48 -20.14,-19.38 l -1.18,-1.73 -134.52,-197.77 48.99,-21.64 116.46,203.97 c 6.99,9.51 11.56,20.52 11.56,29.72"
         style="fill:#67c8f0;fill-opacity:1;fill-rule:nonzero;stroke:none"
         id="path7349"
         inkscape:connector-curvature="0" />
      <path
         d="m 9873.6769,1414.8424 c 0,-19.25 -15.6,-43.86 -34.85,-54.98 -19.25,-11.11 -34.85,-4.51 -34.85,14.73 0,19.25 15.6,43.86 34.85,54.98 19.25,11.11 34.85,4.51 34.85,-14.73"
         style="fill:#4fb1df;fill-opacity:1;fill-rule:nonzero;stroke:none"
         id="path7351"
         inkscape:connector-curvature="0" />
      <path
         d="m 9838.8269,1359.8624 c -19.24,-11.12 -34.83,-4.51 -34.83,14.73 0,15.27 9.8,33.92 23.48,46.5 3.55,3.33 7.38,6.2 11.35,8.48 4.15,2.42 8.16,3.97 11.85,4.74 13.41,2.92 22.98,-4.38 22.98,-19.47 0,-19.24 -15.59,-43.86 -34.83,-54.98 z m 50.74,96.7 c -11.71,8.34 -30.09,7.48 -50.69,-4.42 -20.34,-11.77 -38.48,-31.69 -50.25,-53.25 -8.7,-15.96 -13.9,-32.88 -13.9,-47.92 l 0.2,-156.61 127.8,73.36 0.29,157.29 c 0,14.77 -5.01,25.53 -13.45,31.55"
         style="fill:#67c8f0;fill-opacity:1;fill-rule:nonzero;stroke:none"
         id="path7353"
         inkscape:connector-curvature="0" />
      <path
         d="m 9945.4969,1576.0924 c -0.08,0.6 -0.14,1.4 -0.14,2.43 0,14.36 13.09,34.5 28.01,43.12 3.38,1.95 6.43,3.12 9.07,3.46 l 4.52,0.6 0.6,-4.51 c 0.08,-0.6 0.15,-1.4 0.15,-2.43 0,-14.36 -13.09,-34.51 -28.02,-43.13 -4.2,-2.43 -7.25,-3.22 -9.07,-3.46 l -4.52,-0.6 -0.6,4.52"
         style="fill:#4fb1df;fill-opacity:1;fill-rule:nonzero;stroke:none"
         id="path7355"
         inkscape:connector-curvature="0" />
      <path
         d="m 9928.7069,1736.0724 61.08,-35.12 -23.37,-78.39 -61.08,35.12 23.37,78.39"
         style="fill:#4099d0;fill-opacity:1;fill-rule:nonzero;stroke:none"
         id="path7357"
         inkscape:connector-curvature="0" />
      <path
         d="m 10323.127,904.87235 c -33.95,0 -67.91,7.47 -93.81,22.43 -51.81,29.91 -51.81,78.41005 0,108.32005 16.08,9.29 35.26,15.69 55.63,19.21 0,-0.33 0,-0.67 0,-1 -0.01,-43.18 -1.67,-74.56005 -1.67,-74.56005 v 0 0 0 c -0.88,-0.05 -1.76,-0.07 -2.64,-0.07 -13.17,0 -25.84,5.38 -36.3,10.76 -10.47,5.39 -18.73,10.77005 -23.09,10.77005 -1.16,0 -2.04,-0.38 -2.61,-1.23005 -1.68,-2.48 -2.34,-7.37 -2.34,-12.96 0,-11.25 2.71,-25.35 5.42,-28.42 4.06,-4.65 40.3,-26.88 76.22,-35.54 7.49,-1.84 13.86,-2.56 19.25,-2.56 3.01,0 5.71,0.22 8.12,0.61 v 0 0 c 13.9,2.11 18.34,9.47 18.34,9.47 -5.14,23.8 -9.3,36.29 -11.66,42.24 24.96,-11.82 52.57,-23.55 60.11,-24.29 0.96,-0.1 1.98,-0.14 3.04,-0.14 0.62,0 1.25,0.01 1.88,0.03 v 0 0 c 14.39,0.49 34.14,8.01 32.95,15.42 -1.41,8.27 -10.28,33.05 -10.28,33.05 h -0.01 c 0.32,0.9 0.48,1.82 0.48,2.74 0,0 1.48,14.28005 0.95,33.96005 47.6,-30.06 46.21,-76.72005 -4.17,-105.81005 -25.91,-14.96 -59.86,-22.43 -93.81,-22.43 m 50.46,96.52005 -42.73,6.77 c -0.1,5.54 -0.36,11.55 -0.85,17.85 -0.52,6.86 0.3,18.14 1.86,31.88 14.76,-0.56 29.38,-2.53 43.22,-5.93 -0.42,-29.8 -1.46,-49.86 -1.5,-50.57"
         style="fill:#f2f4f5;fill-opacity:1;fill-rule:nonzero;stroke:none"
         id="path7359"
         inkscape:connector-curvature="0" />
      <path
         d="m 10013.117,1991.3724 -25.3801,-12.01 -10.17,-4.82 c 0,0 -3.19,20.83 -12,30.46 -8.82,9.57 -16.02,50.52 -13.2,62.69 2.81,12.23 6.98,35.87 12.28,38.25 0.81,0.38 1.67,0.59 2.7,0.76 5.68,1.02 13.85,-0.76 13.85,-0.76 0,0 13.14,-22.02 14.39,-24.83 1.08,-2.44 2.76,-31.38 3.14,-38.68 0.05,-1.08 0.1,-1.68 0.1,-1.68 l 0.11,1.03 1.9001,24.07 c 0,0 3.19,7.52 5.19,6.82 2.05,-0.65 6,-17.63 6,-17.63 0,0 2.44,-24.29 0,-29.38 -2.38,-5.08 1.09,-34.29 1.09,-34.29"
         style="fill:#fabdc8;fill-opacity:1;fill-rule:nonzero;stroke:none"
         id="path7361"
         inkscape:connector-curvature="0" />
      <path
         d="m 9975.2369,1984.9124 c -1.84,6.52 -4.86,14.64 -9.41,19.79 -0.08,0.1 -0.17,0.2 -0.26,0.3 -7.49,8.13 -13.81,38.92 -13.82,55.45 0,2.93 0.19,5.41 0.62,7.24 2.81,12.23 6.98,35.87 12.28,38.25 0.81,0.38 1.67,0.59 2.7,0.76 -2.49,-7.63 -8.22,-28.73 -5.25,-52.26 2.82,-21.96 12.73,-40.61 20.29,-59.69 -0.29,-0.33 -0.58,-0.67 -0.87,-1 -2.35,-2.78 -4.47,-5.76 -6.28,-8.84"
         style="fill:#f8a3af;fill-opacity:1;fill-rule:nonzero;stroke:none"
         id="path7363"
         inkscape:connector-curvature="0" />
      <g
         transform="translate(6563.5869,-1035.1176)"
         id="g7365">
        <g
           id="g7367"
           clip-path="url(#clipPath7371)">
          <path
             d="m 3438.11,3067.54 -2.76,9.36 1.9,24.07 c 0,0 2.91,6.87 4.91,6.87 0.1,0 0.19,-0.02 0.28,-0.05 0,0 2,-33.21 -4.33,-40.25"
             style="fill:url(#linearGradient7381);fill-opacity:1;fill-rule:nonzero;stroke:none"
             id="path7383"
             inkscape:connector-curvature="0" />
        </g>
      </g>
      <path
         d="m 10429.967,963.36235 c 1.19,-7.41 -18.56,-14.93 -32.95,-15.42 -1.73,-0.05 -3.4,-0.05 -4.92,0.11 -14.22,1.4 -99.8,41.87 -104.45,48.36 -4.66,6.49005 0,18.61005 0,18.61005 l 85.95,-13.63 17.96,-1.95005 28.13,-3.03 c 0,0 8.87,-24.78 10.28,-33.05"
         style="fill:#181415;fill-opacity:1;fill-rule:nonzero;stroke:none"
         id="path7385"
         inkscape:connector-curvature="0" />
      <g
         transform="translate(6563.5869,-1035.1176)"
         id="g7387">
        <g
           id="g7389"
           clip-path="url(#clipPath7393)">
          <path
             d="m 3831.55,1983.03 c -1.06,0 -2.08,0.04 -3.04,0.14 -7.54,0.74 -35.15,12.47 -60.11,24.29 -1.37,3.45 -2.14,4.71 -2.14,4.71 v 0 c 0,0.03 1.34,12.94 1.01,31.11 l 42.73,-6.77 c 0,-0.02 0,-0.02 0,-0.02 v 0 0 c 0,0 1.08,-8.55 6.6,-11.79 3.14,-1.79 7.03,-3.03 11.09,-3.57 v 0 c 0.19,-0.03 0.39,-0.06 0.59,-0.08 0.5,-10.73 1.8,-25.89 5.15,-37.99 -0.63,-0.02 -1.26,-0.03 -1.88,-0.03"
             style="fill:url(#linearGradient7403);fill-opacity:1;fill-rule:nonzero;stroke:none"
             id="path7405"
             inkscape:connector-curvature="0" />
        </g>
      </g>
      <path
         d="m 10343.647,930.10235 c 0,0 -4.44,-7.36 -18.34,-9.47 -6.71,-1.08 -15.69,-0.92 -27.37,1.95 -35.92,8.66 -72.16,30.89 -76.22,35.54 -4.06,4.6 -8.12,33.92 -3.08,41.38 2.75,4.08005 12.47,-2.73 25.7,-9.54 11.16,-5.74 24.83,-11.48 38.94,-10.69 l 17.04,-0.81 29.53,-1.41 c 0,0 5.68,-9.35 13.8,-46.95"
         style="fill:#181415;fill-opacity:1;fill-rule:nonzero;stroke:none"
         id="path7407"
         inkscape:connector-curvature="0" />
      <g
         transform="translate(6563.5869,-1035.1176)"
         id="g7409">
        <g
           id="g7411"
           clip-path="url(#clipPath7415)">
          <path
             d="m 3753.6,1955.14 c -5.39,0 -11.76,0.72 -19.25,2.56 -35.92,8.66 -72.16,30.89 -76.22,35.54 -2.71,3.07 -5.42,17.17 -5.42,28.42 0,5.59 0.66,10.48 2.34,12.96 0.57,0.85 1.45,1.23 2.61,1.23 4.36,0 12.62,-5.38 23.09,-10.77 10.46,-5.38 23.13,-10.76 36.3,-10.76 0.88,0 1.76,0.02 2.64,0.07 0,-0.02 1.08,-8.55 6.6,-11.79 3.13,-1.79 7.03,-3.03 11.09,-3.57 v 0 0 c 0.03,-0.09 10.08,-25.57 24.34,-43.28 -2.41,-0.39 -5.11,-0.61 -8.12,-0.61"
             style="fill:url(#linearGradient7425);fill-opacity:1;fill-rule:nonzero;stroke:none"
             id="path7427"
             inkscape:connector-curvature="0" />
        </g>
      </g>
      <path
         d="m 10505.047,1678.7024 c 0,0 -3.68,-73.35 -61.51,-136.21 l -17.69,33.32 -8.87,16.67 c 0,0 40.36,56.09 38.52,81.73 -1.84,25.59 -31.21,111.81 -31.21,111.81 l 6.43,53.61 6.6,54.85 c 0,0 42.04,-39.65 67.73,-215.78"
         style="fill:#f9a625;fill-opacity:1;fill-rule:nonzero;stroke:none"
         id="path7429"
         inkscape:connector-curvature="0" />
      <g
         transform="translate(6563.5869,-1035.1176)"
         id="g7431">
        <g
           id="g7433"
           clip-path="url(#clipPath7437)">
          <path
             d="m 3877.01,2636.86 c -1.9,5.54 -3.95,11.43 -6.15,17.72 10.23,17.3 21.14,39.05 21.11,53.06 0,0.58 -0.02,1.14 -0.06,1.69 -0.98,13.6 -9.73,44.31 -17.72,70.11 3.86,11.3 7.64,24.53 10.4,41.51 11.4,-36.02 22.94,-74.6 24.36,-87.6 2.23,-20.64 -8.2,-52.6 -31.94,-96.49"
             style="fill:url(#linearGradient7447);fill-opacity:1;fill-rule:nonzero;stroke:none"
             id="path7449"
             inkscape:connector-curvature="0" />
        </g>
      </g>
      <path
         d="m 10440.067,1215.7524 c -3.08,-45.01 -21.8,-140.6 -19.74,-167.65 2.11,-26.99 -0.17,-48.95005 -0.17,-48.95005 0,-3.46 -2.27,-6.92 -6.87,-9.57 -5.95,-3.41 -14.39,-4.6 -22.01,-3.57 -4.06,0.54 -7.95,1.78 -11.09,3.57 -5.52,3.24 -6.6,11.79005 -6.6,11.79005 0,0 10.87,204.64 -22.88,287.83 l 19.31,4.39 1.95,0.43 48.36,10.87 c 0,0 22.88,-44.14 19.74,-89.14"
         style="fill:#fabdc8;fill-opacity:1;fill-rule:nonzero;stroke:none"
         id="path7451"
         inkscape:connector-curvature="0" />
      <path
         d="m 10391.277,986.01235 v 0 c -4.06,0.54 -7.95,1.78 -11.09,3.57 -5.52,3.24 -6.6,11.79005 -6.6,11.79005 0,0 1.67,31.38 1.67,74.56 0,43.94 -1.72,100.1 -8.68,147.85 4.99,2.08 9.88,4.26 14.61,6.48 4.13,-27.27 7.94,-58.59 9.33,-88.03 2.43,-51.23 1.57,-118.2 0.76,-156.22005"
         style="fill:#f8a3af;fill-opacity:1;fill-rule:nonzero;stroke:none"
         id="path7453"
         inkscape:connector-curvature="0" />
      <path
         d="m 10349.757,1193.6524 c -3.08,-45.01 -21.8,-140.59 -19.75,-167.64 2.11,-26.99005 -0.16,-48.96005 -0.16,-48.96005 0,-3.46 -2.27,-6.92 -6.87,-9.57 -5.95,-3.41 -14.39,-4.6 -22.01,-3.57 -4.06,0.54 -7.96,1.78 -11.09,3.57 -5.52,3.24 -6.6,11.79 -6.6,11.79 0,0 10.87,204.64005 -22.89,287.84005 l 19.32,4.38 1.94,0.43 48.36,10.87 c 0,0 22.89,-44.14 19.75,-89.14"
         style="fill:#fabdc8;fill-opacity:1;fill-rule:nonzero;stroke:none"
         id="path7455"
         inkscape:connector-curvature="0" />
      <path
         d="m 10300.967,963.91235 v 0 c -4.06,0.54 -7.96,1.78 -11.09,3.57 -5.52,3.24 -6.6,11.79 -6.6,11.79 0,0 1.66,31.38005 1.67,74.56005 0,46.44 -1.93,106.53 -9.92,155.9 0.57,-0.16 1.16,-0.31 1.74,-0.46 v 0 0 0 0 c 4.57,-1.15 9.34,-1.84 14.26,-2.14 4.08,-27.03 7.81,-57.93 9.18,-87 2.43,-51.22 1.57,-118.19 0.76,-156.22005"
         style="fill:#f8a3af;fill-opacity:1;fill-rule:nonzero;stroke:none"
         id="path7457"
         inkscape:connector-curvature="0" />
      <path
         d="m 10452.577,1442.8024 c -13.69,-78.17 -12.17,-178.84 -12.17,-178.84 0,0 -100.94,-70.49 -163.64,-54.69 -9.9,2.49 -18.82,7.09 -26.23,14.44 0,0 -14.45,131.67 -19.1,173.43 -4.65,41.76 -0.81,131.12 19.1,176.51 19.9,45.33 -12.93,98.94 -17.53,100.51 -3.46,1.24 -15.63,16.23 -20.18,39.27 -1.03,4.98 -1.68,10.39 -1.78,16.07 -0.11,3.13 0,6.38 0.27,9.73 3.08,37.17 9.3,66.11 9.3,66.11 0,0 159.42,100.4 216.7,89.14 0,0 23.21,-11.25 12.39,-97.96 -10.82,-86.71 -47.98,-83.58 -15.47,-176.46 32.51,-92.88 32.08,-99.04 18.34,-177.26"
         style="fill:#f79519;fill-opacity:1;fill-rule:nonzero;stroke:none"
         id="path7459"
         inkscape:connector-curvature="0" />
      <path
         d="m 10261.897,1743.4024 c 0,-18.29 -9.47,-27.16 -23.21,-30.08 -7.57,-1.62 -16.5,-1.4 -25.86,0.11 -18.88,2.98 -39.43,11.14 -54.31,19.58 -35.43,20.18 -125.99,77.03 -125.99,77.03 0,0 -54.4101,120.09 -62.0401,143.52 -1.35,2.43 -2.11,5.57 -2.11,9.3 0,9.9 5.25,21.58 13.14,30.89 4.12,4.87 8.93,9.08 14.07,12.06 12.2801,7.09 22.6601,4.92 26.0701,-4.27 0,0 32.89,-106.52 55.56,-140.76 l 143.4,-55.44 c 0,0 41.28,-13.04 41.28,-61.94"
         style="fill:#f9a625;fill-opacity:1;fill-rule:nonzero;stroke:none"
         id="path7461"
         inkscape:connector-curvature="0" />
      <path
         d="m 10238.487,2010.7824 c 0,0 1.18,-94.77 21.2,-118.9 20.02,-24.14 14.38,97.55 14.38,97.55 l -35.58,21.35"
         style="fill:#fabdc8;fill-opacity:1;fill-rule:nonzero;stroke:none"
         id="path7463"
         inkscape:connector-curvature="0" />
      <path
         d="m 10250.577,1910.8924 c -11.18,35.88 -12.07,98.55 -12.09,99.87 2.69,-22.23 10.12,-43.55 14.37,-56.69 0.59,-1.84 0.85,-4.65 0.85,-8.23 0.01,-8.36 -1.38,-20.88 -3.13,-34.95"
         style="fill:#f8a3af;fill-opacity:1;fill-rule:nonzero;stroke:none"
         id="path7465"
         inkscape:connector-curvature="0" />
      <path
         d="m 10372.587,1831.4424 c -15.52,-12.52 -65.95,-5.11 -81.01,2.95 l -1.84,1.1 c -13.27,3.61 -44.23,-15.72 -44.23,-15.72 -8.38,25.98 12.6,118.05 7.35,134.3 -5.25,16.26 -15.38,45.04 -15.38,72.58 0,20.07 25.37,30.53 39.05,34.67 4.05,1.24 7.96,2.81 11.92,4.42 5.39,2.17 18.79,4.74 51.72,1.66 2.34,-0.19 4.83,-0.46 7.41,-0.74 57.56,-6.26 53.78,-66.31 51.3,-100.71 -0.92,-12.43 -1.06,-26.11 -0.92,-38.54 0.23,-19.3 3.96,-38.27 9.48,-56.78 0.51,-1.79 0.97,-3.68 1.25,-5.62 1.7,-11.46 -19.85,-20.44 -36.1,-33.57"
         style="fill:#181415;fill-opacity:1;fill-rule:nonzero;stroke:none"
         id="path7467"
         inkscape:connector-curvature="0" />
      <path
         d="m 10291.577,1834.3924 -1.84,1.1 c -1.22,0.28 -2.53,0.41 -3.92,0.41 -0.99,0 -2.02,-0.07 -3.07,-0.19 1.13,0.15 2.21,0.23 3.24,0.23 1.36,0 2.62,-0.14 3.75,-0.45 l 1.84,-1.1 v 0 0"
         style="fill:#e86d19;fill-opacity:1;fill-rule:nonzero;stroke:none"
         id="path7469"
         inkscape:connector-curvature="0" />
      <path
         d="m 10245.507,1819.7724 c -1.42,4.42 -2,10.74 -2,18.27 -0.01,31.78 10.22,85.14 10.2,107.8 0,3.58 -0.26,6.39 -0.85,8.23 -5.25,16.26 -15.38,45.04 -15.38,72.58 0,20.07 25.37,30.53 39.05,34.67 4.05,1.24 7.96,2.81 11.92,4.42 3.61,1.45 10.79,3.08 25.01,3.08 7.04,0 15.8,-0.4 26.71,-1.42 -16.9,-9.17 -37.54,-28.78 -29.48,-68.57 10.32,-50.61 -10.04,-132.21 -19.11,-164.44 v 0 l -1.84,1.1 c -1.13,0.31 -2.39,0.45 -3.75,0.45 -1.03,0 -2.11,-0.08 -3.24,-0.23 -15.57,-1.79 -37.24,-15.94 -37.24,-15.94 v 0"
         style="fill:#171314;fill-opacity:1;fill-rule:nonzero;stroke:none"
         id="path7471"
         inkscape:connector-curvature="0" />
      <g
         transform="translate(6563.5869,-1035.1176)"
         id="g7473">
        <g
           id="g7475"
           clip-path="url(#clipPath7479)">
          <path
             d="m 3713.18,2244.39 c -9.9,2.49 -18.82,7.09 -26.23,14.44 0,0 -14.45,131.67 -19.1,173.43 -1.14,10.28 -1.78,23.44 -1.78,38.12 -0.01,44.96 5.87,104.17 20.88,138.39 4.54,10.36 6.34,21.15 6.35,31.65 0.02,35.46 -20.33,67.65 -23.88,68.86 -3.46,1.24 -15.63,16.23 -20.18,39.27 4.92,-0.8 9.72,-1.23 14.27,-1.23 4.1,0 8,0.35 11.59,1.12 v 0 l 1.95,-1.13 c 0,0 26.07,-39.6 30.24,-58.59 4.11,-18.99 14.33,-45.87 -10.5,-170.02 -19.91,-99.8 5.57,-227.95 16.39,-274.31"
             style="fill:url(#linearGradient7489);fill-opacity:1;fill-rule:nonzero;stroke:none"
             id="path7491"
             inkscape:connector-curvature="0" />
        </g>
      </g>
      <g
         transform="translate(6563.5869,-1035.1176)"
         id="g7493">
        <g
           id="g7495"
           clip-path="url(#clipPath7499)">
          <path
             d="m 3663.51,2747.32 c -4.55,0 -9.35,0.43 -14.27,1.23 v 0 c -18.88,2.98 -39.43,11.14 -54.31,19.58 -35.43,20.18 -125.99,77.03 -125.99,77.03 0,0 -18.09,39.93 -34.87,78.23 -12.32,28.12 -23.94,55.37 -27.17,65.29 -1.35,2.43 -2.11,5.57 -2.11,9.3 0,9.9 5.25,21.58 13.14,30.89 l 65.51,-168.24 164.02,-96.01 27.64,-16.18 c -3.59,-0.77 -7.49,-1.12 -11.59,-1.12"
             style="fill:url(#linearGradient7509);fill-opacity:1;fill-rule:nonzero;stroke:none"
             id="path7511"
             inkscape:connector-curvature="0" />
        </g>
      </g>
    </g>
  </g>
</svg>
